<?xml version="1.0" encoding="UTF-8" standalone="no"?>
<svg
   xmlns:dc="http://purl.org/dc/elements/1.1/"
   xmlns:cc="http://creativecommons.org/ns#"
   xmlns:rdf="http://www.w3.org/1999/02/22-rdf-syntax-ns#"
   xmlns:svg="http://www.w3.org/2000/svg"
   xmlns="http://www.w3.org/2000/svg"
   xmlns:sodipodi="http://sodipodi.sourceforge.net/DTD/sodipodi-0.dtd"
   xmlns:inkscape="http://www.inkscape.org/namespaces/inkscape"
   id="svg49"
   style="clip-rule:evenodd;fill-rule:evenodd;stroke-linejoin:round;stroke-miterlimit:1.41420996"
   xml:space="preserve"
   version="1.1"
   viewBox="0 0 378.25131 327.51428"
   height="327.51428"
   width="378.25131"
   sodipodi:docname="openflexure_logo_above.svg"
   inkscape:version="0.92.5 (2060ec1f9f, 2020-04-08)"><sodipodi:namedview
     pagecolor="#ffffff"
     bordercolor="#666666"
     borderopacity="1"
     objecttolerance="10"
     gridtolerance="10"
     guidetolerance="10"
     inkscape:pageopacity="0"
     inkscape:pageshadow="2"
     inkscape:window-width="640"
     inkscape:window-height="480"
     id="namedview28"
     showgrid="false"
     fit-margin-top="0"
     fit-margin-left="0"
     fit-margin-right="0"
     fit-margin-bottom="0"
     inkscape:current-layer="svg49" /><metadata
     id="metadata55"><rdf:RDF><cc:Work
         rdf:about=""><dc:format>image/svg+xml</dc:format><dc:type
           rdf:resource="http://purl.org/dc/dcmitype/StillImage" /><dc:title></dc:title></cc:Work></rdf:RDF></metadata><defs
     id="defs53" /><path
     id="path2"
     style="fill-rule:nonzero;stroke-width:0.413903"
     d="m 123.23353,48.405956 4.08271,-10.129737 5.56721,-9.261962 6.90286,-8.245361 8.08966,-7.079934 L 157.00358,7.92328 167.0203,3.620675 177.77727,0.929973 189.12564,0 l 11.34838,0.929973 10.75697,2.690702 10.01674,4.302605 9.12765,5.765682 8.0897,7.079934 6.90294,8.245361 5.56731,9.261962 4.08284,10.129737 v 0 l 4.2e-4,0.0017 0.63948,2.168852 4.9958,9.305152 7.07768,6.062381 8.31258,3.43669 8.70052,1.42808 8.24144,0.03655 6.9354,-0.737896 4.78236,-0.895265 1.78234,-0.43555 27.10941,70.02742 -102.95174,39.85513 -17.40462,-44.95773 -0.0733,0.0273 -9.63401,-25.10404 2.16016,-0.90231 8.3302,-5.07404 8.41332,-9.07901 5.26991,-11.207616 0.85853,-17.327325 -1.75091,-7.837563 -5.88188,-10.557204 -8.66232,-8.32174 -10.81211,-5.455565 -12.33123,-1.95868 -12.33121,1.95868 -10.81207,5.455565 -8.66219,8.32174 -5.88162,10.557204 -1.75108,7.837098 0.8587,17.32779 5.26976,11.207616 8.41346,9.07901 8.3302,5.07404 2.16017,0.90231 -0.0315,0.0819 -9.60296,25.02209 -0.0733,-0.0273 -17.40421,44.95773 -102.952025,-39.85512 27.1094,-70.027424 1.78234,0.43555 4.78235,0.895265 6.9354,0.737896 8.241445,-0.03655 8.70051,-1.42808 8.31259,-3.43669 7.07768,-6.062381 4.99579,-9.305152 0.63989,-2.168852 z"
     inkscape:connector-curvature="0" /><g
     transform="translate(-362.02124,-12.000082)"
     id="g79"><path
       d="m 396.785,236.74989 -0.28849,4.25206 -0.86542,3.75824 -1.44228,3.2644 -2.0191,2.77059 -2.53404,2.20788 -2.98623,1.57721 -3.43847,0.94642 -3.89077,0.3155 -2.49875,-0.14534 -2.34927,-0.43594 -2.19983,-0.7264 -2.05046,-1.01675 -1.86126,-1.28887 -1.63311,-1.54189 -1.40483,-1.79497 -1.17642,-2.04812 -0.92979,-2.26194 -0.66407,-2.43635 -0.39839,-2.61072 -0.13278,-2.78501 0.2863,-4.22097 0.85897,-3.73116 1.43177,-3.24141 2.00469,-2.75171 2.52565,-2.19347 2.99454,-1.5667 3.46344,-0.93997 3.93235,-0.31331 3.77701,0.32059 3.36179,0.96181 2.94668,1.6031 2.53171,2.24444 2.03378,2.78783 1.45278,3.23416 0.87172,3.68035 z m -26.72895,0 0.58734,5.5636 1.76193,3.97416 2.93641,2.38458 4.11075,0.79489 4.06746,-0.79489 2.90533,-2.38458 1.7432,-3.97416 0.58106,-5.5636 -0.58516,-5.50552 -1.75555,-3.93237 -2.92608,-2.35933 -4.09673,-0.78641 -2.28787,0.20335 -1.94959,0.61007 -1.61135,1.01677 -1.2732,1.42348 -0.96579,1.80328 -0.69001,2.15613 -0.41409,2.50892 z"
       style="fill-rule:nonzero;stroke-width:0.65810537"
       id="path5"
       inkscape:connector-curvature="0" /><path
       d="m 424.37673,255.84219 -3.29118,-0.31342 -2.90118,-0.94019 -2.51114,-1.56692 -2.12102,-2.19358 h -0.11616 -0.11615 -0.11616 -0.11615 l 0.20336,2.09599 0.14518,1.63942 0.0871,1.18286 0.029,0.7263 v 3.76025 3.76025 3.76025 3.76025 h -1.95063 -1.95062 -1.95063 -1.95062 v -13.26461 -13.2646 -13.26461 -13.26461 h 1.57715 1.57715 1.57715 1.57715 l 0.16806,0.69286 0.23865,1.04997 0.30923,1.40707 0.37981,1.76417 h 0.0995 0.0995 0.0995 0.0995 l 2.05452,-2.44051 2.51108,-1.74314 2.96765,-1.04585 3.4242,-0.3486 3.24651,0.31123 2.86688,0.93374 2.4872,1.5564 2.10745,2.17917 1.67781,2.74122 1.19836,3.24343 0.71897,3.74565 0.23964,4.24786 -0.24383,4.25206 -0.73148,3.75824 -1.21914,3.2644 -1.7068,2.77059 -2.13644,2.20788 -2.50798,1.57721 -2.87939,0.94642 z m -1.89271,-31.67593 -2.16755,0.17016 -1.85414,0.51048 -1.54071,0.85081 -1.22728,1.19113 -0.93718,1.56465 -0.66942,1.97135 -0.40165,2.37807 -0.13388,2.78477 v 0.29055 0.29056 0.29055 0.29055 l 0.13288,3.12239 0.39854,2.65948 0.66409,2.19662 0.92951,1.73383 1.23074,1.31465 1.56686,0.93903 1.903,0.56342 2.23912,0.18781 1.90903,-0.20755 1.67674,-0.62265 1.44439,-1.03775 1.21197,-1.45285 0.95878,-1.83636 0.68484,-2.18927 0.4109,-2.54218 0.13697,-2.89509 -0.13597,-2.90002 -0.40787,-2.52441 -0.67971,-2.1488 -0.95149,-1.77318 -1.21495,-1.3872 -1.4702,-0.99086 -1.7255,-0.59452 z"
       style="fill-rule:nonzero;stroke-width:0.65810537"
       id="path7"
       inkscape:connector-curvature="0" /><path
       d="m 464.15393,255.84219 -4.04943,-0.31233 -3.5827,-0.937 -3.11589,-1.56176 -2.64903,-2.18657 -2.11363,-2.73404 -1.50973,-3.20511 -0.90584,-3.6761 -0.30195,-4.14704 0.28012,-4.25834 0.84039,-3.77697 1.40072,-3.29548 1.96112,-2.81387 2.45088,-2.25173 2.86999,-1.60823 3.28916,-0.96484 3.70839,-0.32159 3.44481,0.27593 3.06303,0.82788 2.68125,1.37994 2.29946,1.93214 1.84461,2.41543 1.31766,2.83066 0.79065,3.24575 0.26356,3.66073 v 1.05412 1.05412 1.05412 1.05413 h -6.11775 -6.11775 -6.11774 -6.11775 l 0.2431,2.51821 0.5625,2.20912 0.88197,1.89989 1.20151,1.59054 1.50034,1.25667 1.77842,0.89747 2.05643,0.53839 2.33437,0.17944 1.5992,-0.0384 1.543,-0.11513 1.48686,-0.19188 1.43077,-0.26863 1.42877,-0.35795 1.48071,-0.45974 1.53255,-0.56143 1.58424,-0.66298 v 1.58554 1.58554 1.58554 1.58554 l -1.43173,0.63081 -1.44024,0.53116 -1.44863,0.43158 -1.4569,0.33207 -1.51256,0.24703 -1.61657,0.17646 -1.72047,0.10587 z m -1.42743,-32.14121 -1.767,0.14733 -1.58234,0.442 -1.39762,0.73667 -1.21284,1.03133 -1.00767,1.31364 -0.78131,1.58351 -0.55512,1.85324 -0.32913,2.12286 h 4.16713 4.16712 4.16713 4.16712 l -0.16212,-2.13644 -0.4193,-1.86048 -0.67646,-1.58444 -0.93361,-1.30834 -1.16226,-1.02404 -1.36142,-0.73154 -1.56057,-0.43896 z"
       style="fill-rule:nonzero;stroke-width:0.65810537"
       id="path9"
       inkscape:connector-curvature="0" /><path
       d="m 519.60391,255.17816 h -1.95901 -1.95902 -1.95902 -1.95901 v -5.64457 -5.64457 -5.64457 -5.64457 l -0.10687,-1.99037 -0.32065,-1.72044 -0.53449,-1.45058 -0.7484,-1.18077 -0.98039,-0.91511 -1.2315,-0.65357 -1.48273,-0.3921 -1.73409,-0.13068 -2.30736,0.18261 -1.97543,0.5478 -1.64349,0.91293 -1.31157,1.27799 -1.00245,1.70801 -0.71611,2.20196 -0.42971,2.69578 -0.14325,3.18949 v 4.57383 4.57383 4.57384 4.57383 h -1.95062 -1.95063 -1.95063 -1.95062 v -9.18074 -9.18073 -9.18073 -9.18074 h 1.5273 1.5273 1.5273 1.5273 l 0.27393,1.20351 0.27394,1.20351 0.27393,1.20351 0.27394,1.20351 h 0.0997 0.0997 0.0997 0.0997 l 0.91732,-1.23677 1.09155,-1.08741 1.26578,-0.93797 1.44002,-0.78849 1.56871,-0.6245 1.65181,-0.44607 1.73486,-0.26764 1.81784,-0.0892 5.78165,0.84044 4.12983,2.52132 2.47794,4.20221 0.82599,5.88309 v 5.98498 5.98497 5.98498 z"
       style="fill-rule:nonzero;stroke-width:0.65810537"
       id="path11"
       inkscape:connector-curvature="0" /><path
       d="m 547.12917,223.07051 h -2.31587 -2.31587 -2.31588 -2.31587 v 8.02692 8.02691 8.02691 8.02691 h -1.37791 -1.3779 -1.37791 -1.37791 v -8.02691 -8.02691 -8.02691 -8.02692 h -1.627 -1.62701 -1.627 -1.627 v -0.62256 -0.62257 -0.62257 -0.62257 l 1.627,-0.49802 1.627,-0.49802 1.62701,-0.49802 1.627,-0.49802 v -0.50641 -0.50642 -0.50641 -0.50641 l 0.73248,-5.86879 2.19749,-4.19191 3.66255,-2.51511 5.12768,-0.83835 1.5068,0.0727 1.63112,0.21797 1.75563,0.3632 1.88032,0.50837 -0.35702,1.10398 -0.35702,1.10397 -0.35702,1.10397 -0.35702,1.10397 -1.53565,-0.4504 -1.41941,-0.32164 -1.30317,-0.19294 -1.18694,-0.0643 -1.45892,0.12969 -1.25544,0.38906 -1.05208,0.64845 -0.84885,0.90781 -0.65377,1.19421 -0.46682,1.50764 -0.28,1.82106 -0.0933,2.13448 v 0.58934 0.58933 0.58933 0.58934 h 2.31587 2.31587 2.31588 2.31587 v 1.0709 1.0709 1.0709 z m 12.15257,32.10765 h -1.37791 -1.3779 -1.37791 -1.37791 V 242.26202 229.34588 216.42974 203.5136 h 1.37791 1.37791 1.3779 1.37791 v 12.91614 12.91614 12.91614 z"
       style="fill-rule:nonzero;stroke-width:0.65810537"
       id="path13"
       inkscape:connector-curvature="0" /><path
       d="m 586.34238,255.84219 -3.82168,-0.30713 -3.39609,-0.92139 -2.97063,-1.53565 -2.54528,-2.14991 -2.04097,-2.69569 -1.45768,-3.17304 -0.87452,-3.65046 -0.29148,-4.12794 0.27075,-4.17308 0.81232,-3.72072 1.35403,-3.26836 1.89586,-2.81599 2.35213,-2.26614 2.72368,-1.61874 3.09509,-0.97129 3.46638,-0.32378 3.24157,0.28122 2.88465,0.84365 2.52767,1.40608 2.17063,1.96851 1.74307,2.42878 1.24506,2.78786 0.74703,3.14694 0.24901,3.50601 v 0.87166 0.87166 0.87166 0.87166 h -6.26714 -6.26714 -6.26713 -6.26714 l 0.26484,3.01123 0.6278,2.62512 0.99095,2.23914 1.35429,1.85329 1.69223,1.45247 2.00566,1.03755 2.31908,0.62258 2.6325,0.20754 2.93001,-0.15362 2.91348,-0.46081 2.89693,-0.76793 2.88041,-1.07501 v 1.22852 1.22852 1.22852 1.22852 l -1.44125,0.58651 -1.40177,0.49706 -1.36228,0.40771 -1.32279,0.31851 -1.37091,0.23974 -1.50566,0.17132 -1.64041,0.10284 z m -1.49456,-33.10402 -2.08016,0.17844 -1.85835,0.53536 -1.63637,0.89234 -1.4142,1.24938 -1.16928,1.56479 -0.9017,1.8386 -0.63405,2.11254 -0.36635,2.3866 h 4.75646 4.75646 4.75645 4.75646 l -0.14534,-2.45407 -0.43593,-2.14897 -0.72641,-1.84381 -1.01675,-1.5386 -1.2865,-1.21311 -1.5357,-0.86642 -1.78483,-0.51981 z"
       style="fill-rule:nonzero;stroke-width:0.65810537"
       id="path15"
       inkscape:connector-curvature="0" /><path
       d="m 616.52375,236.55049 -3.16253,-4.4409 -3.16252,-4.44089 -3.16253,-4.4409 -3.16252,-4.44089 h 1.56876 1.56876 1.56875 1.56876 l 2.39896,3.48631 2.39896,3.48631 2.39896,3.48632 2.39896,3.48631 2.39073,-3.48631 2.39073,-3.48632 2.39073,-3.48631 2.39073,-3.48631 h 1.55214 1.55214 1.55215 1.55214 l -3.16253,4.44089 -3.16252,4.4409 -3.16253,4.44089 -3.16252,4.4409 3.32853,4.65691 3.32853,4.65692 3.32854,4.65692 3.32853,4.65692 h -1.56053 -1.56054 -1.56053 -1.56053 l -2.54835,-3.68572 -2.54835,-3.68572 -2.54834,-3.68572 -2.54835,-3.68572 -2.57319,3.68572 -2.5732,3.68572 -2.57319,3.68572 -2.57319,3.68572 h -1.56053 -1.56054 -1.56053 -1.56053 l 3.32853,-4.65692 3.32853,-4.65692 3.32854,-4.65692 z"
       style="fill-rule:nonzero;stroke-width:0.65810537"
       id="path17"
       inkscape:connector-curvature="0" /><path
       d="m 648.56492,218.78691 v 5.90189 5.90188 5.90189 5.90189 l 0.1266,2.08351 0.37981,1.80137 0.63302,1.51916 0.88622,1.2369 1.15596,0.95878 1.44224,0.68484 1.72852,0.41091 2.01479,0.13696 2.66374,-0.19508 2.27961,-0.58526 1.89561,-0.97544 1.51173,-1.36561 1.15485,-1.80761 0.8249,-2.30143 0.49493,-2.79527 0.16498,-3.28908 v -4.7813 -4.7813 -4.7813 -4.7813 h 1.37808 1.37807 1.37808 1.37807 v 9.09781 9.09781 9.09782 9.09781 h -1.13737 -1.13737 -1.13738 -1.13737 l -0.19907,-1.22029 -0.19908,-1.22029 -0.19907,-1.2203 -0.19908,-1.22029 h -0.0747 -0.0747 -0.0747 -0.0747 l -0.92892,1.26576 -1.09278,1.10819 -1.25666,0.95049 -1.42052,0.79267 -1.55529,0.6246 -1.66103,0.4463 -1.76691,0.26787 -1.87291,0.0893 -3.11177,-0.19717 -2.69469,-0.59149 -2.27762,-0.98573 -1.86055,-1.37991 -1.44518,-1.81392 -1.03242,-2.2869 -0.61955,-2.75999 -0.20654,-3.23321 v -5.95174 -5.95174 -5.95174 -5.95174 h 1.39453 1.39452 1.39453 z"
       style="fill-rule:nonzero;stroke-width:0.65810537"
       id="path19"
       inkscape:connector-curvature="0" /><path
       d="m 701.72338,218.12288 1.18102,0.0249 1.11865,0.0748 1.05633,0.12463 0.99408,0.17448 -0.19101,1.2782 -0.19102,1.27821 -0.19101,1.2782 -0.19102,1.27821 -1.09562,-0.21767 -1.02924,-0.15548 -0.96285,-0.0933 -0.89646,-0.0311 -2.12831,0.22409 -1.96839,0.67225 -1.80848,1.12043 -1.64855,1.56859 -1.3729,1.90312 -0.98057,2.123 -0.5883,2.3429 -0.19608,2.56279 v 4.881 4.881 4.881 4.88101 h -1.37791 -1.3779 -1.37791 -1.37791 v -9.09781 -9.09782 -9.09781 -9.09781 h 1.13721 1.1372 1.13721 1.1372 l 0.15778,1.68508 0.15779,1.68507 0.15778,1.68508 0.15778,1.68508 h 0.0663 0.0663 0.0663 0.0663 l 1.06466,-1.67471 1.16837,-1.47136 1.27215,-1.26801 1.37599,-1.06465 1.46282,-0.84227 1.53353,-0.60177 1.60411,-0.36116 z"
       style="fill-rule:nonzero;stroke-width:0.65810537"
       id="path21"
       inkscape:connector-curvature="0" /><path
       d="m 726.89197,255.84219 -3.82168,-0.30713 -3.3961,-0.92139 -2.97062,-1.53565 -2.54528,-2.14991 -2.04107,-2.69569 -1.45791,-3.17304 -0.87475,-3.65046 -0.29158,-4.12794 0.27084,-4.17308 0.81248,-3.72072 1.35406,-3.26836 1.89558,-2.81599 2.35242,-2.26614 2.72371,-1.61874 3.09514,-0.97129 3.46667,-0.32378 3.24148,0.28122 2.88449,0.84365 2.52764,1.40608 2.1709,1.96851 1.74308,2.42878 1.24505,2.78786 0.74703,3.14694 0.24901,3.50601 v 0.87166 0.87166 0.87166 0.87166 h -6.26714 -6.26714 -6.26713 -6.26714 l 0.26455,3.01123 0.62776,2.62512 0.99091,2.23914 1.354,1.85329 1.69261,1.45247 2.00578,1.03755 2.31896,0.62258 2.63213,0.20754 2.93039,-0.15362 2.91367,-0.46081 2.89701,-0.76793 2.88042,-1.07501 v 1.22852 1.22852 1.22852 1.22852 l -1.44126,0.58651 -1.40184,0.49706 -1.36248,0.40771 -1.32317,0.31851 -1.37054,0.23974 -1.50546,0.17132 -1.64034,0.10284 z m -1.49456,-33.10402 -2.08044,0.17844 -1.85832,0.53536 -1.63622,0.89234 -1.4141,1.24938 -1.16928,1.56479 -0.9017,1.8386 -0.63405,2.11254 -0.36635,2.3866 h 4.75629 4.7563 4.75629 4.75629 l -0.14524,-2.45407 -0.4357,-2.14897 -0.72618,-1.84381 -1.01665,-1.5386 -1.28678,-1.21311 -1.53567,-0.86642 -1.78468,-0.51981 z"
       style="fill-rule:nonzero;stroke-width:0.65810537"
       id="path23"
       inkscape:connector-curvature="0" /></g><g
     transform="translate(-347.71042,-12.000082)"
     id="g91"><path
       d="m 409.76745,323.17821 v -5.91851 -5.9185 -5.9185 -5.91851 l -0.12869,-2.46122 -0.38603,-2.10431 -0.64331,-1.74732 -0.90053,-1.39028 -1.16646,-1.06032 -1.44021,-0.75745 -1.71403,-0.45451 -1.9879,-0.15152 -2.5919,0.1909 -2.23086,0.57275 -1.8698,0.95466 -1.50875,1.33662 -1.16214,1.74505 -0.83002,2.18088 -0.49797,2.6167 -0.16598,3.05254 v 5.28771 5.28771 5.28772 5.28771 h -0.83843 -0.83842 -0.83842 -0.83843 v -6.1676 -6.1676 -6.16759 -6.1676 l -0.52295,-3.99453 -1.56884,-2.85331 -2.61473,-1.71203 -3.66063,-0.57069 -2.64598,0.20645 -2.25987,0.61939 -1.87389,1.03239 -1.48804,1.44546 -1.13316,1.89992 -0.80924,2.39578 -0.48546,2.89171 -0.16179,3.38769 v 4.98054 4.98054 4.98054 4.98054 h -0.82181 -0.82181 -0.8218 -0.82181 v -9.02295 -9.02295 -9.02296 -9.02295 h 0.68064 0.68065 0.68065 0.68064 l 0.17423,1.23674 0.17423,1.23675 0.17424,1.23674 0.17423,1.23675 h 0.0498 0.0498 0.0499 0.0498 l 0.82602,-1.26886 0.9836,-1.11751 1.1413,-0.96611 1.29912,-0.81465 1.41326,-0.64619 1.48372,-0.46172 1.5543,-0.27713 1.62501,-0.0924 3.8847,0.40054 3.12108,1.20162 2.35739,2.00269 1.59363,2.80378 h 0.0332 0.0332 0.0332 0.0332 l 0.95571,-1.45498 1.10712,-1.27624 1.25865,-1.09769 1.4103,-0.91932 1.53652,-0.72643 1.63826,-0.51887 1.74006,-0.31133 1.84193,-0.10377 2.77034,0.19717 2.40097,0.59148 2.03164,0.98573 1.66239,1.37991 1.29267,1.80974 0.92341,2.27438 0.5541,2.73922 0.18471,3.20422 v 5.90189 5.90188 5.90189 5.90189 h -0.81342 -0.81342 -0.81341 z"
       style="fill-rule:nonzero;stroke-width:0.65810537"
       id="path25"
       inkscape:connector-curvature="0" /><path
       d="m 427.99565,323.17821 h -0.82165 -0.82164 -0.82164 -0.82165 v -9.02295 -9.02295 -9.02296 -9.02295 h 0.82165 0.82164 0.82164 0.82165 v 9.02295 9.02296 9.02295 z m -3.75186,-46.11936 0.13079,-1.3946 0.39232,-0.99622 0.6538,-0.59777 0.91521,-0.19928 0.48641,0.0519 0.43057,0.15578 0.37468,0.25955 0.31872,0.36326 0.25405,0.45866 0.18162,0.54578 0.10906,0.63289 0.0364,0.72001 -0.0364,0.70751 -0.10906,0.62885 -0.18162,0.55 -0.25405,0.47097 -0.31872,0.37785 -0.37468,0.26981 -0.43057,0.16184 -0.48641,0.0539 -0.91521,-0.20127 -0.6538,-0.60384 -0.39232,-1.00648 z"
       style="fill-rule:nonzero;stroke-width:0.65810537"
       id="path27"
       inkscape:connector-curvature="0" /><path
       d="m 454.49229,323.84224 -3.65865,-0.30504 -3.23953,-0.91517 -2.82036,-1.52536 -2.40113,-2.1356 -1.91718,-2.681 -1.36948,-3.16248 -0.82174,-3.64397 -0.27393,-4.12546 0.2843,-4.23466 0.85291,-3.73861 1.42151,-3.24257 1.99011,-2.74652 2.48395,-2.18618 2.90305,-1.56156 3.32223,-0.93694 3.74146,-0.31231 2.31612,0.10168 2.26627,0.30503 2.21642,0.50838 2.16656,0.71174 -0.22409,0.7305 -0.22408,0.7305 -0.22409,0.73049 -0.22408,0.7305 -2.26418,-0.68275 -2.11049,-0.48761 -1.95687,-0.29252 -1.8033,-0.0975 -3.11905,0.25629 -2.71653,0.76888 -2.31402,1.28145 -1.91151,1.79404 -1.49604,2.27542 -1.0686,2.72569 -0.64116,3.17607 -0.21372,3.62659 0.21372,3.45421 0.64116,3.05774 1.0686,2.6614 1.49604,2.26518 1.88031,1.80834 2.22051,1.29175 2.56083,0.77509 2.90128,0.25838 2.41347,-0.10995 2.32628,-0.32991 2.23905,-0.54992 2.15175,-0.76999 v 0.76373 0.76373 0.76373 0.76373 l -1.86141,0.74073 -2.13115,0.52917 -2.40089,0.31755 z"
       style="fill-rule:nonzero;stroke-width:0.65810537"
       id="path29"
       inkscape:connector-curvature="0" /><path
       d="m 486.59993,286.38881 1.16596,0.0291 1.20766,0.0872 1.24937,0.14521 1.29108,0.20309 -0.15778,0.78874 -0.15778,0.78874 -0.15778,0.78874 -0.15778,0.78874 -1.13928,-0.24704 -1.16014,-0.17645 -1.18087,-0.10588 -1.20147,-0.0353 -2.20381,0.24483 -1.99638,0.73451 -1.78884,1.22427 -1.58116,1.71409 -1.29295,2.08771 -0.92338,2.34504 -0.55394,2.60233 -0.18462,2.85954 v 4.98054 4.98054 4.98054 4.98054 h -0.82181 -0.82181 -0.82181 -0.82181 v -9.02295 -9.02295 -9.02296 -9.02295 h 0.69726 0.69726 0.69727 0.69726 l 0.0829,1.62683 0.0829,1.62684 0.0829,1.62683 0.0829,1.62684 h 0.0581 0.0581 0.0581 0.0581 l 1.13116,-1.84375 1.16842,-1.54705 1.20569,-1.25029 1.24296,-0.95346 1.32837,-0.70445 1.46101,-0.50325 1.59379,-0.302 z"
       style="fill-rule:nonzero;stroke-width:0.65810537"
       id="path31"
       inkscape:connector-curvature="0" /><path
       d="m 527.33994,305.08229 -0.26765,4.17431 -0.80301,3.69079 -1.33841,3.2072 -1.87388,2.72356 -2.34499,2.17188 -2.75171,1.55127 -3.15841,0.93071 -3.56512,0.31023 -2.30354,-0.14315 -2.16244,-0.42948 -2.02141,-0.71589 -1.88042,-1.00234 -1.7036,-1.27011 -1.49191,-1.51911 -1.28029,-1.76813 -1.06874,-2.01713 -0.84255,-2.22467 -0.60174,-2.3907 -0.361,-2.55667 -0.12032,-2.72257 0.26765,-4.17222 0.803,-3.68457 1.33842,-3.19691 1.87388,-2.70926 2.34081,-2.15692 2.73919,-1.54081 3.13763,-0.92457 3.53613,-0.30822 3.51873,0.31231 3.11801,0.93694 2.71735,1.56156 2.31675,2.18618 1.85229,2.72996 1.32298,3.19282 0.79375,3.65555 z m -28.48806,0 0.20435,3.51427 0.6131,3.10553 1.0219,2.69672 1.43077,2.28785 1.80439,1.8233 2.14268,1.3022 2.4809,0.78124 2.81907,0.26038 2.81935,-0.26038 2.48087,-0.78124 2.14252,-1.3022 1.8043,-1.8233 1.43115,-2.28785 1.0221,-2.69672 0.61317,-3.10553 0.20436,-3.51427 -0.20645,-3.52577 -0.61939,-3.10653 -1.03239,-2.68737 -1.44546,-2.26825 -1.81898,-1.80133 -2.15301,-1.28659 -2.48717,-0.7719 -2.82144,-0.25729 -2.81697,0.25629 -2.4746,0.76888 -2.13219,1.28145 -1.78971,1.79404 -1.41647,2.26305 -1.01161,2.68845 -0.60688,3.1138 z"
       style="fill-rule:nonzero;stroke-width:0.65810537"
       id="path33"
       inkscape:connector-curvature="0" /><path
       d="m 559.71346,313.78178 -0.23038,2.28352 -0.69113,2.00355 -1.15189,1.72343 -1.61265,1.4432 -2.03562,1.14055 -2.42173,0.8146 -2.8077,0.48872 -3.19356,0.16289 -3.43259,-0.13905 -3.05896,-0.41713 -2.68531,-0.69513 -2.31168,-0.97309 v -0.88828 -0.88828 -0.88827 -0.88828 l 2.75997,1.19113 2.83475,0.85081 2.90952,0.51048 2.9843,0.17016 2.51194,-0.11095 2.1903,-0.33294 1.86862,-0.55505 1.54687,-0.77728 1.21311,-0.96172 0.86642,-1.10917 0.51981,-1.25651 0.17326,-1.40372 -0.13797,-1.30764 -0.41393,-1.1995 -0.68997,-1.09152 -0.96607,-0.98373 -1.28148,-0.92562 -1.63623,-0.91716 -1.99112,-0.90889 -2.34613,-0.90081 -2.50463,-0.94508 -2.10219,-0.87672 -1.69954,-0.80836 -1.29673,-0.74 -1.02836,-0.72825 -0.89355,-0.77404 -0.75869,-0.81969 -0.62375,-0.86523 -0.4864,-0.93708 -0.34758,-1.03443 -0.20864,-1.13192 -0.0696,-1.22953 0.21273,-1.91978 0.6382,-1.70803 1.06366,-1.49628 1.48913,-1.28454 1.87063,-1.03133 2.20905,-0.73667 2.54726,-0.442 2.88531,-0.14733 2.88461,0.13697 2.80989,0.4109 2.73524,0.68484 2.66065,0.95878 -0.30717,0.74711 -0.30717,0.74711 -0.30717,0.74712 -0.30717,0.74711 -2.60869,-0.95878 -2.51318,-0.68484 -2.41767,-0.4109 -2.32217,-0.13697 -2.09374,0.0913 -1.86558,0.27394 -1.63731,0.45656 -1.4089,0.63919 -1.13315,0.80106 -0.80925,0.94217 -0.48545,1.08321 -0.16179,1.22419 0.1255,1.34057 0.37655,1.19947 0.62766,1.05843 0.87882,0.91745 1.24408,0.87141 1.7234,0.92127 2.20279,0.97112 2.68225,1.02097 2.27429,0.85822 1.94235,0.8146 1.61043,0.77104 1.27849,0.72755 1.04293,0.72925 0.90375,0.77707 0.76455,0.82482 0.62536,0.87251 0.48678,0.93611 0.34778,1.01476 0.20872,1.09362 z"
       style="fill-rule:nonzero;stroke-width:0.65810537"
       id="path35"
       inkscape:connector-curvature="0" /><path
       d="m 583.42039,323.84224 -3.65854,-0.30504 -3.23931,-0.91517 -2.82013,-1.52536 -2.40103,-2.1356 -1.91756,-2.681 -1.36968,-3.16248 -0.8218,-3.64397 -0.27394,-4.12546 0.2843,-4.23466 0.8529,-3.73861 1.42151,-3.24257 1.99011,-2.74652 2.48405,-2.18618 2.90328,-1.56156 3.32246,-0.93694 3.74157,-0.31231 2.31574,0.10168 2.26607,0.30503 2.21634,0.50838 2.16656,0.71174 -0.22409,0.7305 -0.22408,0.7305 -0.22408,0.73049 -0.22409,0.7305 -2.26418,-0.68275 -2.1105,-0.48761 -1.95686,-0.29252 -1.8033,-0.0975 -3.11904,0.25629 -2.71647,0.76888 -2.31382,1.28145 -1.91113,1.79404 -1.49642,2.27542 -1.06879,2.72569 -0.64123,3.17607 -0.21373,3.62659 0.21373,3.45421 0.64123,3.05774 1.06879,2.6614 1.49642,2.26518 1.88002,1.80834 2.22047,1.29175 2.56079,0.77509 2.90099,0.25838 2.41348,-0.10995 2.32636,-0.32991 2.23925,-0.54992 2.15212,-0.76999 v 0.76373 0.76373 0.76373 0.76373 l -1.86151,0.74073 -2.13138,0.52917 -2.40112,0.31755 z"
       style="fill-rule:nonzero;stroke-width:0.65810537"
       id="path37"
       inkscape:connector-curvature="0" /><path
       d="m 631.16659,305.08229 -0.26765,4.17431 -0.80301,3.69079 -1.33841,3.2072 -1.87388,2.72356 -2.345,2.17188 -2.75178,1.55127 -3.15861,0.93071 -3.5655,0.31023 -2.30316,-0.14315 -2.16224,-0.42948 -2.02133,-0.71589 -1.88042,-1.00234 -1.7036,-1.27011 -1.49191,-1.51911 -1.28029,-1.76813 -1.06873,-2.01713 -0.84266,-2.22467 -0.60197,-2.3907 -0.36123,-2.55667 -0.12042,-2.72257 0.26776,-4.17222 0.80322,-3.68457 1.33864,-3.19691 1.87399,-2.70926 2.34081,-2.15692 2.73919,-1.54081 3.13763,-0.92457 3.53613,-0.30822 3.51846,0.31231 3.11804,0.93694 2.7175,1.56156 2.31684,2.18618 1.85229,2.72996 1.32298,3.19282 0.79375,3.65555 z m -28.48806,0 0.20435,3.51427 0.6131,3.10553 1.0219,2.69672 1.43077,2.28785 1.80439,1.8233 2.14268,1.3022 2.4809,0.78124 2.81907,0.26038 2.81935,-0.26038 2.48087,-0.78124 2.14252,-1.3022 1.8043,-1.8233 1.43087,-2.28785 1.02213,-2.69672 0.61333,-3.10553 0.20445,-3.51427 -0.20645,-3.52577 -0.61939,-3.10653 -1.03239,-2.68737 -1.44546,-2.26825 -1.81898,-1.80133 -2.15301,-1.28659 -2.48717,-0.7719 -2.82144,-0.25729 -2.81697,0.25629 -2.47461,0.76888 -2.13218,1.28145 -1.78971,1.79404 -1.41647,2.26305 -1.01161,2.68845 -0.60688,3.1138 z"
       style="fill-rule:nonzero;stroke-width:0.65810537"
       id="path39"
       inkscape:connector-curvature="0" /><path
       d="m 656.60039,323.84224 -3.88469,-0.39016 -3.32041,-1.17045 -2.756,-1.95068 -2.19147,-2.73084 h -0.0581 -0.0581 -0.0581 -0.0581 l 0.0249,0.69726 0.0249,0.69727 0.0248,0.69726 0.0249,0.69726 0.0582,1.25753 0.0415,1.31558 0.0249,1.3737 0.008,1.43189 v 3.43662 3.43663 3.43663 3.43662 h -0.82181 -0.82181 -0.82181 -0.82181 V 326.40737 313.30038 300.19339 287.0864 h 0.69726 0.69726 0.69727 0.69726 l 0.15778,1.2866 0.15778,1.28659 0.15778,1.28659 0.15778,1.2866 h 0.0498 0.0498 0.0499 0.0498 l 2.13743,-2.55674 2.69364,-1.82624 3.24978,-1.09574 3.80585,-0.36525 3.43557,0.29986 3.00177,0.89962 2.56804,1.49944 2.13437,2.09932 1.67781,2.67173 1.19836,3.21758 0.71897,3.76334 0.23964,4.30906 -0.25211,4.19911 -0.75636,3.69906 -1.26067,3.19893 -1.76505,2.69876 -2.20087,2.14262 -2.56809,1.53051 -2.93531,0.91836 -3.30254,0.30613 h -10e-6 -10e-6 v 0 z m -0.0665,-2.92199 2.61573,-0.25729 2.30237,-0.77191 1.98908,-1.28658 1.67583,-1.80133 1.32933,-2.26416 0.94952,-2.675 0.56972,-3.08579 0.1899,-3.4965 -0.71803,-6.95809 -2.1541,-4.97015 -3.59017,-2.98213 -5.02624,-0.99406 -2.94482,0.21681 -2.52552,0.65049 -2.10622,1.08422 -1.68693,1.51801 -1.29305,2.00786 -0.92361,2.55363 -0.55417,3.09929 -0.18472,3.64482 v 0.26571 0.26571 0.26571 0.26571 l 0.17744,3.93039 0.53232,3.3244 0.88721,2.71853 1.24209,2.11278 1.64253,1.58328 2.0886,1.13091 2.5348,0.67855 z"
       style="fill-rule:nonzero;stroke-width:0.65810537"
       id="path41"
       inkscape:connector-curvature="0" /><path
       d="m 696.21175,323.84224 -3.71751,-0.30294 -3.28391,-0.90888 -2.85029,-1.51486 -2.41669,-2.12092 -1.92484,-2.6667 -1.37481,-3.15219 -0.82485,-3.63775 -0.27493,-4.12337 0.26566,-4.10191 0.79693,-3.67212 1.32815,-3.24247 1.8593,-2.81292 2.30958,-2.27343 2.67902,-1.62387 3.04847,-0.97433 3.41791,-0.32477 3.01946,0.27812 2.68327,0.83433 2.34702,1.39046 2.01071,1.94654 1.61255,2.42383 1.15166,2.82234 0.69091,3.22077 0.23027,3.61916 v 0.66403 0.66403 0.66402 0.66403 h -6.49945 -6.49945 -6.49944 -6.49945 l 0.24171,3.49873 0.65891,3.05888 1.07598,2.61898 1.49293,2.17902 1.88547,1.71409 2.25269,1.22427 2.61992,0.73451 2.98714,0.24483 1.49727,-0.0269 1.40391,-0.0808 1.3105,-0.13489 1.21703,-0.18906 1.24814,-0.278 1.40386,-0.40257 1.55959,-0.52707 1.71531,-0.65151 v 0.74711 0.74712 0.74711 0.74712 l -1.49814,0.61103 -1.44014,0.50528 -1.38214,0.39941 -1.32415,0.29341 -1.32824,0.21076 -1.39451,0.15054 -1.46089,0.0903 z m -0.96281,-34.53145 -2.47789,0.21482 -2.22049,0.64442 -1.96308,1.07396 -1.70569,1.50343 -1.4131,1.90805 -1.08531,2.28786 -0.75745,2.66768 -0.42953,3.04748 h 5.5781 5.5781 5.57811 5.5781 l -0.17016,-2.96653 -0.51049,-2.62416 -0.85081,-2.28175 -1.19113,-1.93926 -1.49208,-1.547 -1.75361,-1.105 -2.01509,-0.663 z"
       style="fill-rule:nonzero;stroke-width:0.65810537"
       id="path43"
       inkscape:connector-curvature="0" /></g></svg>