  0
SECTION
  2
HEADER
  9
$ACADVER
  1
AC1014
  9
$HANDSEED
  5
FFFF
  9
$MEASUREMENT
 70
     1
  0
ENDSEC
  0
SECTION
  2
TABLES
  0
TABLE
  2
VPORT
  5
8
330
0
100
AcDbSymbolTable
 70
     4
  0
VPORT
  5
2E
330
8
100
AcDbSymbolTableRecord
100
AcDbViewportTableRecord
  2
*ACTIVE
 70
     0
 10
0.0
 20
0.0
 11
1.0
 21
1.0
 12
210.0
 22
148.5
 13
0.0
 23
0.0
 14
10.0
 24
10.0
 15
10.0
 25
10.0
 16
0.0
 26
0.0
 36
1.0
 17
0.0
 27
0.0
 37
0.0
 40
341.0
 41
1.24
 42
50.0
 43
0.0
 44
0.0
 50
0.0
 51
0.0
 71
     0
 72
   100
 73
     1
 74
     3
 75
     0
 76
     0
 77
     0
 78
     0
  0
ENDTAB
  0
TABLE
  2
LTYPE
  5
5
330
0
100
AcDbSymbolTable
 70
     1
  0
LTYPE
  5
14
330
5
100
AcDbSymbolTableRecord
100
AcDbLinetypeTableRecord
  2
BYBLOCK
 70
     0
  3

 72
    65
 73
     0
 40
0.0
  0
LTYPE
  5
15
330
5
100
AcDbSymbolTableRecord
100
AcDbLinetypeTableRecord
  2
BYLAYER
 70
     0
  3

 72
    65
 73
     0
 40
0.0
  0
LTYPE
  5
16
330
5
100
AcDbSymbolTableRecord
100
AcDbLinetypeTableRecord
  2
CONTINUOUS
 70
     0
  3
Solid line
 72
    65
 73
     0
 40
0.0
  0
ENDTAB
  0
TABLE
  2
LAYER
  5
2
100
AcDbSymbolTable
 70
1
  0
LAYER
  5
50
100
AcDbSymbolTableRecord
100
AcDbLayerTableRecord
  2
0
 70
0
  6
CONTINUOUS
  0
ENDTAB
  0
TABLE
  2
STYLE
  5
3
330
0
100
AcDbSymbolTable
 70
     1
  0
STYLE
  5
11
330
3
100
AcDbSymbolTableRecord
100
AcDbTextStyleTableRecord
  2
STANDARD
 70
     0
 40
0.0
 41
1.0
 50
0.0
 71
     0
 42
2.5
  3
txt
  4

  0
ENDTAB
  0
TABLE
  2
VIEW
  5
6
330
0
100
AcDbSymbolTable
 70
     0
  0
ENDTAB
  0
TABLE
  2
UCS
  5
7
330
0
100
AcDbSymbolTable
 70
     0
  0
ENDTAB
  0
TABLE
  2
APPID
  5
9
330
0
100
AcDbSymbolTable
 70
     2
  0
APPID
  5
12
330
9
100
AcDbSymbolTableRecord
100
AcDbRegAppTableRecord
  2
ACAD
 70
     0
  0
ENDTAB
  0
TABLE
  2
DIMSTYLE
  5
A
330
0
100
AcDbSymbolTable
 70
     1
  0
DIMSTYLE
105
27
330
A
100
AcDbSymbolTableRecord
100
AcDbDimStyleTableRecord
  2
ISO-25
 70
     0
  3

  4

  5

  6

  7

 40
1.0
 41
2.5
 42
0.625
 43
3.75
 44
1.25
 45
0.0
 46
0.0
 47
0.0
 48
0.0
140
2.5
141
2.5
142
0.0
143
0.03937007874016
144
1.0
145
0.0
146
1.0
147
0.625
 71
     0
 72
     0
 73
     0
 74
     0
 75
     0
 76
     0
 77
     1
 78
     8
170
     0
171
     3
172
     1
173
     0
174
     0
175
     0
176
     0
177
     0
178
     0
270
     2
271
     2
272
     2
273
     2
274
     3
340
11
275
     0
280
     0
281
     0
282
     0
283
     0
284
     8
285
     0
286
     0
287
     3
288
     0
  0
ENDTAB
  0
TABLE
  2
BLOCK_RECORD
  5
1
330
0
100
AcDbSymbolTable
 70
     1
  0
BLOCK_RECORD
  5
1F
330
1
100
AcDbSymbolTableRecord
100
AcDbBlockTableRecord
  2
*MODEL_SPACE
  0
BLOCK_RECORD
  5
1B
330
1
100
AcDbSymbolTableRecord
100
AcDbBlockTableRecord
  2
*PAPER_SPACE
  0
ENDTAB
  0
ENDSEC
  0
SECTION
  2
BLOCKS
  0
BLOCK
  5
20
330
1F
100
AcDbEntity
  8
0
100
AcDbBlockBegin
  2
*MODEL_SPACE
 70
     0
 10
0.0
 20
0.0
 30
0.0
  3
*MODEL_SPACE
  1

  0
ENDBLK
  5
21
330
1F
100
AcDbEntity
  8
0
100
AcDbBlockEnd
  0
BLOCK
  5
1C
330
1B
100
AcDbEntity
 67
     1
  8
0
100
AcDbBlockBegin
  2
*PAPER_SPACE
  1

  0
ENDBLK
  5
1D
330
1B
100
AcDbEntity
 67
     1
  8
0
100
AcDbBlockEnd
  0
ENDSEC
  0
SECTION
  2
ENTITIES
  0
LWPOLYLINE
  5
100
100
AcDbEntity
  8
0
 62
7
100
AcDbPolyline
 90
68
 70
1
 10
32.605538
 20
73.847411
 30
0.0
 10
33.685755
 20
76.527570
 30
0.0
 10
35.158746
 20
78.978131
 30
0.0
 10
36.985128
 20
81.159716
 30
0.0
 10
39.125517
 20
83.032949
 30
0.0
 10
41.540531
 20
84.558452
 30
0.0
 10
44.190788
 20
85.696850
 30
0.0
 10
47.036903
 20
86.408765
 30
0.0
 10
50.039492
 20
86.654820
 30
0.0
 10
53.042084
 20
86.408765
 30
0.0
 10
55.888199
 20
85.696850
 30
0.0
 10
58.538462
 20
84.558452
 30
0.0
 10
60.953486
 20
83.032949
 30
0.0
 10
63.093886
 20
81.159716
 30
0.0
 10
64.920289
 20
78.978131
 30
0.0
 10
66.393306
 20
76.527570
 30
0.0
 10
67.473557
 20
73.847411
 30
0.0
 10
67.473557
 20
73.847411
 30
0.0
 10
67.473669
 20
73.846961
 30
0.0
 10
67.642864
 20
73.273119
 30
0.0
 10
68.964670
 20
70.811131
 30
0.0
 10
70.837306
 20
69.207126
 30
0.0
 10
73.036676
 20
68.297835
 30
0.0
 10
75.338689
 20
67.919989
 30
0.0
 10
77.519236
 20
67.910318
 30
0.0
 10
79.354228
 20
68.105553
 30
0.0
 10
80.619560
 20
68.342425
 30
0.0
 10
81.091138
 20
68.457665
 30
0.0
 10
88.263836
 20
49.929576
 30
0.0
 10
61.024521
 20
39.384573
 30
0.0
 10
56.419549
 20
51.279639
 30
0.0
 10
56.400155
 20
51.272416
 30
0.0
 10
53.851156
 20
57.914527
 30
0.0
 10
54.422699
 20
58.153263
 30
0.0
 10
56.626731
 20
59.495769
 30
0.0
 10
58.852755
 20
61.897924
 30
0.0
 10
60.247085
 20
64.863273
 30
0.0
 10
60.474238
 20
69.447794
 30
0.0
 10
60.010977
 20
71.521482
 30
0.0
 10
58.454729
 20
74.314743
 30
0.0
 10
56.162824
 20
76.516536
 30
0.0
 10
53.302120
 20
77.959988
 30
0.0
 10
50.039482
 20
78.478222
 30
0.0
 10
46.776849
 20
77.959988
 30
0.0
 10
43.916155
 20
76.516536
 30
0.0
 10
41.624284
 20
74.314743
 30
0.0
 10
40.068106
 20
71.521482
 30
0.0
 10
39.604799
 20
69.447917
 30
0.0
 10
39.831997
 20
64.863273
 30
0.0
 10
41.226288
 20
61.897924
 30
0.0
 10
43.452349
 20
59.495769
 30
0.0
 10
45.656381
 20
58.153263
 30
0.0
 10
46.227926
 20
57.914527
 30
0.0
 10
46.219592
 20
57.892857
 30
0.0
 10
43.678808
 20
51.272429
 30
0.0
 10
43.659414
 20
51.279653
 30
0.0
 10
39.054551
 20
39.384586
 30
0.0
 10
11.815161
 20
49.929587
 30
0.0
 10
18.987856
 20
68.457676
 30
0.0
 10
19.459433
 20
68.342437
 30
0.0
 10
20.724764
 20
68.105565
 30
0.0
 10
22.559755
 20
67.910330
 30
0.0
 10
24.740304
 20
67.920000
 30
0.0
 10
27.042314
 20
68.297846
 30
0.0
 10
29.241686
 20
69.207137
 30
0.0
 10
31.114323
 20
70.811142
 30
0.0
 10
32.436125
 20
73.273130
 30
0.0
 10
32.605430
 20
73.846973
 30
0.0
  0
LWPOLYLINE
  5
101
100
AcDbEntity
  8
0
 62
7
100
AcDbPolyline
 90
36
 70
1
 10
9.197912
 20
27.189767
 30
0.0
 10
9.121582
 20
26.064742
 30
0.0
 10
8.892606
 20
25.070375
 30
0.0
 10
8.511003
 20
24.206669
 30
0.0
 10
7.976783
 20
23.473617
 30
0.0
 10
7.306318
 20
22.889449
 30
0.0
 10
6.516211
 20
22.472145
 30
0.0
 10
5.606449
 20
22.221738
 30
0.0
 10
4.577017
 20
22.138262
 30
0.0
 10
3.915889
 20
22.176717
 30
0.0
 10
3.294311
 20
22.292059
 30
0.0
 10
2.712273
 20
22.484253
 30
0.0
 10
2.169755
 20
22.753268
 30
0.0
 10
1.677297
 20
23.094281
 30
0.0
 10
1.245203
 20
23.502240
 30
0.0
 10
0.873509
 20
23.977159
 30
0.0
 10
0.562248
 20
24.519057
 30
0.0
 10
0.316241
 20
25.117529
 30
0.0
 10
0.140539
 20
25.762146
 30
0.0
 10
0.035131
 20
26.452899
 30
0.0
 10
0.000000
 20
27.189767
 30
0.0
 10
0.075750
 20
28.306565
 30
0.0
 10
0.303019
 20
29.293768
 30
0.0
 10
0.681842
 20
30.151391
 30
0.0
 10
1.212249
 20
30.879447
 30
0.0
 10
1.880494
 20
31.459803
 30
0.0
 10
2.672800
 20
31.874326
 30
0.0
 10
3.589168
 20
32.123026
 30
0.0
 10
4.629602
 20
32.205923
 30
0.0
 10
5.628936
 20
32.121100
 30
0.0
 10
6.518410
 20
31.866621
 30
0.0
 10
7.298052
 20
31.442467
 30
0.0
 10
7.967901
 20
30.848626
 30
0.0
 10
8.506005
 20
30.111013
 30
0.0
 10
8.890386
 20
29.255308
 30
0.0
 10
9.121029
 20
28.281549
 30
0.0
  0
LWPOLYLINE
  5
102
100
AcDbEntity
  8
0
 62
7
100
AcDbPolyline
 90
20
 70
1
 10
2.125877
 20
27.189767
 30
0.0
 10
2.281277
 20
25.717731
 30
0.0
 10
2.747455
 20
24.666234
 30
0.0
 10
3.524380
 20
24.035314
 30
0.0
 10
4.612016
 20
23.824999
 30
0.0
 10
5.688198
 20
24.035314
 30
0.0
 10
6.456900
 20
24.666234
 30
0.0
 10
6.918121
 20
25.717731
 30
0.0
 10
7.071860
 20
27.189767
 30
0.0
 10
6.917036
 20
28.646435
 30
0.0
 10
6.452547
 20
29.686875
 30
0.0
 10
5.678355
 20
30.311114
 30
0.0
 10
4.594429
 20
30.519185
 30
0.0
 10
3.989096
 20
30.465382
 30
0.0
 10
3.473267
 20
30.303968
 30
0.0
 10
3.046931
 20
30.034948
 30
0.0
 10
2.710064
 20
29.658318
 30
0.0
 10
2.454532
 20
29.181201
 30
0.0
 10
2.271967
 20
28.610725
 30
0.0
 10
2.162405
 20
27.946906
 30
0.0
  0
LWPOLYLINE
  5
103
100
AcDbEntity
  8
0
 62
7
100
AcDbPolyline
 90
56
 70
1
 10
16.498223
 20
22.138262
 30
0.0
 10
15.627432
 20
22.221188
 30
0.0
 10
14.859828
 20
22.469946
 30
0.0
 10
14.195422
 20
22.884527
 30
0.0
 10
13.634236
 20
23.464912
 30
0.0
 10
13.603502
 20
23.464912
 30
0.0
 10
13.572770
 20
23.464912
 30
0.0
 10
13.542036
 20
23.464912
 30
0.0
 10
13.511305
 20
23.464912
 30
0.0
 10
13.565111
 20
22.910348
 30
0.0
 10
13.603523
 20
22.476585
 30
0.0
 10
13.626568
 20
22.163620
 30
0.0
 10
13.634241
 20
21.971453
 30
0.0
 10
13.634241
 20
20.976553
 30
0.0
 10
13.634241
 20
19.981654
 30
0.0
 10
13.634241
 20
18.986755
 30
0.0
 10
13.634241
 20
17.991855
 30
0.0
 10
13.118137
 20
17.991855
 30
0.0
 10
12.602035
 20
17.991855
 30
0.0
 10
12.085931
 20
17.991855
 30
0.0
 10
11.569830
 20
17.991855
 30
0.0
 10
11.569830
 20
21.501450
 30
0.0
 10
11.569830
 20
25.011042
 30
0.0
 10
11.569830
 20
28.520637
 30
0.0
 10
11.569830
 20
32.030231
 30
0.0
 10
11.987117
 20
32.030231
 30
0.0
 10
12.404405
 20
32.030231
 30
0.0
 10
12.821692
 20
32.030231
 30
0.0
 10
13.238980
 20
32.030231
 30
0.0
 10
13.283446
 20
31.846912
 30
0.0
 10
13.346589
 20
31.569108
 30
0.0
 10
13.428406
 20
31.196820
 30
0.0
 10
13.528897
 20
30.730050
 30
0.0
 10
13.555223
 20
30.730050
 30
0.0
 10
13.581549
 20
30.730050
 30
0.0
 10
13.607875
 20
30.730050
 30
0.0
 10
13.634201
 20
30.730050
 30
0.0
 10
14.177793
 20
31.375769
 30
0.0
 10
14.842183
 20
31.836974
 30
0.0
 10
15.627374
 20
32.113689
 30
0.0
 10
16.533360
 20
32.205923
 30
0.0
 10
17.392333
 20
32.123576
 30
0.0
 10
18.150861
 20
31.876524
 30
0.0
 10
18.808933
 20
31.464727
 30
0.0
 10
19.366529
 20
30.888155
 30
0.0
 10
19.810450
 20
30.162874
 30
0.0
 10
20.127516
 20
29.304716
 30
0.0
 10
20.317743
 20
28.313680
 30
0.0
 10
20.381148
 20
27.189767
 30
0.0
 10
20.316635
 20
26.064742
 30
0.0
 10
20.123097
 20
25.070375
 30
0.0
 10
19.800533
 20
24.206669
 30
0.0
 10
19.348942
 20
23.473617
 30
0.0
 10
18.783676
 20
22.889449
 30
0.0
 10
18.120106
 20
22.472145
 30
0.0
 10
17.358267
 20
22.221738
 30
0.0
  0
LWPOLYLINE
  5
104
100
AcDbEntity
  8
0
 62
7
100
AcDbPolyline
 90
36
 70
1
 10
15.997444
 20
30.519185
 30
0.0
 10
15.423946
 20
30.474164
 30
0.0
 10
14.933372
 20
30.339099
 30
0.0
 10
14.525726
 20
30.113989
 30
0.0
 10
14.201008
 20
29.798836
 30
0.0
 10
13.953046
 20
29.384856
 30
0.0
 10
13.775928
 20
28.863269
 30
0.0
 10
13.669658
 20
28.234072
 30
0.0
 10
13.634236
 20
27.497268
 30
0.0
 10
13.634236
 20
27.420393
 30
0.0
 10
13.634236
 20
27.343516
 30
0.0
 10
13.634236
 20
27.266641
 30
0.0
 10
13.634236
 20
27.189767
 30
0.0
 10
13.669394
 20
26.363634
 30
0.0
 10
13.774841
 20
25.659980
 30
0.0
 10
13.950548
 20
25.078791
 30
0.0
 10
14.196481
 20
24.620049
 30
0.0
 10
14.522114
 20
24.272214
 30
0.0
 10
14.936679
 20
24.023762
 30
0.0
 10
15.440181
 20
23.874691
 30
0.0
 10
16.032615
 20
23.824999
 30
0.0
 10
16.537712
 20
23.879914
 30
0.0
 10
16.981350
 20
24.044657
 30
0.0
 10
17.363511
 20
24.319228
 30
0.0
 10
17.684179
 20
24.703628
 30
0.0
 10
17.937856
 20
25.189498
 30
0.0
 10
18.119053
 20
25.768742
 30
0.0
 10
18.227770
 20
26.441361
 30
0.0
 10
18.264010
 20
27.207353
 30
0.0
 10
18.228035
 20
27.974650
 30
0.0
 10
18.120119
 20
28.642567
 30
0.0
 10
17.940279
 20
29.211104
 30
0.0
 10
17.688531
 20
29.680258
 30
0.0
 10
17.367075
 20
30.047288
 30
0.0
 10
16.978085
 20
30.309453
 30
0.0
 10
16.521546
 20
30.466753
 30
0.0
  0
LWPOLYLINE
  5
105
100
AcDbEntity
  8
0
 62
7
100
AcDbPolyline
 90
60
 70
1
 10
27.022608
 20
22.138262
 30
0.0
 10
25.951196
 20
22.220899
 30
0.0
 10
25.003273
 20
22.468814
 30
0.0
 10
24.178861
 20
22.882030
 30
0.0
 10
23.477971
 20
23.460560
 30
0.0
 10
22.918740
 20
24.183941
 30
0.0
 10
22.519291
 20
25.031960
 30
0.0
 10
22.279621
 20
26.004595
 30
0.0
 10
22.199730
 20
27.101832
 30
0.0
 10
22.273845
 20
28.228518
 30
0.0
 10
22.496198
 20
29.227841
 30
0.0
 10
22.866805
 20
30.099770
 30
0.0
 10
23.385685
 20
30.844274
 30
0.0
 10
24.034147
 20
31.440044
 30
0.0
 10
24.793498
 20
31.865555
 30
0.0
 10
25.663755
 20
32.120835
 30
0.0
 10
26.644933
 20
32.205923
 30
0.0
 10
27.556373
 20
32.132916
 30
0.0
 10
28.366799
 20
31.913873
 30
0.0
 10
29.076213
 20
31.548764
 30
0.0
 10
29.684612
 20
31.037552
 30
0.0
 10
30.172665
 20
30.398469
 30
0.0
 10
30.521296
 20
29.649524
 30
0.0
 10
30.730489
 20
28.790752
 30
0.0
 10
30.800223
 20
27.822184
 30
0.0
 10
30.800223
 20
27.543282
 30
0.0
 10
30.800223
 20
27.264379
 30
0.0
 10
30.800223
 20
26.985476
 30
0.0
 10
30.800223
 20
26.706571
 30
0.0
 10
29.181568
 20
26.706571
 30
0.0
 10
27.562913
 20
26.706571
 30
0.0
 10
25.944261
 20
26.706571
 30
0.0
 10
24.325606
 20
26.706571
 30
0.0
 10
24.389927
 20
26.040295
 30
0.0
 10
24.538755
 20
25.455799
 30
0.0
 10
24.772109
 20
24.953119
 30
0.0
 10
25.090009
 20
24.532289
 30
0.0
 10
25.486974
 20
24.199795
 30
0.0
 10
25.957514
 20
23.962339
 30
0.0
 10
26.501611
 20
23.819890
 30
0.0
 10
27.119247
 20
23.772414
 30
0.0
 10
27.542368
 20
23.782574
 30
0.0
 10
27.950620
 20
23.813035
 30
0.0
 10
28.344019
 20
23.863803
 30
0.0
 10
28.722577
 20
23.934878
 30
0.0
 10
29.100605
 20
24.029586
 30
0.0
 10
29.492377
 20
24.151225
 30
0.0
 10
29.897864
 20
24.299770
 30
0.0
 10
30.317027
 20
24.475184
 30
0.0
 10
30.317027
 20
24.055676
 30
0.0
 10
30.317027
 20
23.636169
 30
0.0
 10
30.317027
 20
23.216662
 30
0.0
 10
30.317027
 20
22.797154
 30
0.0
 10
29.938215
 20
22.630252
 30
0.0
 10
29.557152
 20
22.489716
 30
0.0
 10
29.173868
 20
22.375527
 30
0.0
 10
28.788397
 20
22.287667
 30
0.0
 10
28.388199
 20
22.222307
 30
0.0
 10
27.960481
 20
22.175619
 30
0.0
 10
27.505274
 20
22.147607
 30
0.0
  0
LWPOLYLINE
  5
106
100
AcDbEntity
  8
0
 62
7
100
AcDbPolyline
 90
20
 70
1
 10
26.644933
 20
30.642291
 30
0.0
 10
26.177415
 20
30.603310
 30
0.0
 10
25.758754
 20
30.486364
 30
0.0
 10
25.388967
 20
30.291453
 30
0.0
 10
25.068070
 20
30.018580
 30
0.0
 10
24.801457
 20
29.671013
 30
0.0
 10
24.594735
 20
29.252043
 30
0.0
 10
24.447860
 20
28.761706
 30
0.0
 10
24.360778
 20
28.200033
 30
0.0
 10
25.463331
 20
28.200033
 30
0.0
 10
26.565881
 20
28.200033
 30
0.0
 10
27.668434
 20
28.200033
 30
0.0
 10
28.770985
 20
28.200033
 30
0.0
 10
28.728091
 20
28.765299
 30
0.0
 10
28.617151
 20
29.257551
 30
0.0
 10
28.438171
 20
29.676768
 30
0.0
 10
28.191153
 20
30.022933
 30
0.0
 10
27.883638
 20
30.293877
 30
0.0
 10
27.523429
 20
30.487430
 30
0.0
 10
27.110529
 20
30.603572
 30
0.0
  0
LWPOLYLINE
  5
107
100
AcDbEntity
  8
0
 62
7
100
AcDbPolyline
 90
64
 70
1
 10
41.693748
 20
22.313953
 30
0.0
 10
41.175427
 20
22.313953
 30
0.0
 10
40.657103
 20
22.313953
 30
0.0
 10
40.138779
 20
22.313953
 30
0.0
 10
39.620457
 20
22.313953
 30
0.0
 10
39.620457
 20
23.807413
 30
0.0
 10
39.620457
 20
25.300872
 30
0.0
 10
39.620457
 20
26.794331
 30
0.0
 10
39.620457
 20
28.287790
 30
0.0
 10
39.592181
 20
28.814409
 30
0.0
 10
39.507343
 20
29.269609
 30
0.0
 10
39.365925
 20
29.653408
 30
0.0
 10
39.167911
 20
29.965820
 30
0.0
 10
38.908516
 20
30.207943
 30
0.0
 10
38.582682
 20
30.380866
 30
0.0
 10
38.190376
 20
30.484610
 30
0.0
 10
37.731565
 20
30.519185
 30
0.0
 10
37.121076
 20
30.470870
 30
0.0
 10
36.598410
 20
30.325931
 30
0.0
 10
36.163570
 20
30.084385
 30
0.0
 10
35.816551
 20
29.746250
 30
0.0
 10
35.551319
 20
29.294339
 30
0.0
 10
35.361848
 20
28.711737
 30
0.0
 10
35.248154
 20
27.998479
 30
0.0
 10
35.210253
 20
27.154593
 30
0.0
 10
35.210253
 20
25.944434
 30
0.0
 10
35.210253
 20
24.734274
 30
0.0
 10
35.210253
 20
23.524113
 30
0.0
 10
35.210253
 20
22.313953
 30
0.0
 10
34.694151
 20
22.313953
 30
0.0
 10
34.178047
 20
22.313953
 30
0.0
 10
33.661943
 20
22.313953
 30
0.0
 10
33.145841
 20
22.313953
 30
0.0
 10
33.145841
 20
24.743024
 30
0.0
 10
33.145841
 20
27.172092
 30
0.0
 10
33.145841
 20
29.601161
 30
0.0
 10
33.145841
 20
32.030231
 30
0.0
 10
33.549939
 20
32.030231
 30
0.0
 10
33.954037
 20
32.030231
 30
0.0
 10
34.358136
 20
32.030231
 30
0.0
 10
34.762234
 20
32.030231
 30
0.0
 10
34.834711
 20
31.711803
 30
0.0
 10
34.907191
 20
31.393374
 30
0.0
 10
34.979668
 20
31.074945
 30
0.0
 10
35.052148
 20
30.756517
 30
0.0
 10
35.078527
 20
30.756517
 30
0.0
 10
35.104906
 20
30.756517
 30
0.0
 10
35.131285
 20
30.756517
 30
0.0
 10
35.157664
 20
30.756517
 30
0.0
 10
35.400372
 20
31.083745
 30
0.0
 10
35.689178
 20
31.371456
 30
0.0
 10
36.024082
 20
31.619627
 30
0.0
 10
36.405087
 20
31.828248
 30
0.0
 10
36.820142
 20
31.993481
 30
0.0
 10
37.257183
 20
32.111503
 30
0.0
 10
37.716198
 20
32.182316
 30
0.0
 10
38.197168
 20
32.205917
 30
0.0
 10
39.726896
 20
31.983551
 30
0.0
 10
40.819581
 20
31.316452
 30
0.0
 10
41.475202
 20
30.204617
 30
0.0
 10
41.693745
 20
28.648049
 30
0.0
 10
41.693745
 20
27.064523
 30
0.0
 10
41.693745
 20
25.481000
 30
0.0
 10
41.693745
 20
23.897474
 30
0.0
  0
LWPOLYLINE
  5
108
100
AcDbEntity
  8
0
 62
7
100
AcDbPolyline
 90
68
 70
1
 10
48.976473
 20
30.809103
 30
0.0
 10
48.363733
 20
30.809103
 30
0.0
 10
47.750992
 20
30.809103
 30
0.0
 10
47.138249
 20
30.809103
 30
0.0
 10
46.525508
 20
30.809103
 30
0.0
 10
46.525508
 20
28.685313
 30
0.0
 10
46.525508
 20
26.561527
 30
0.0
 10
46.525508
 20
24.437740
 30
0.0
 10
46.525508
 20
22.313953
 30
0.0
 10
46.160936
 20
22.313953
 30
0.0
 10
45.796367
 20
22.313953
 30
0.0
 10
45.431795
 20
22.313953
 30
0.0
 10
45.067223
 20
22.313953
 30
0.0
 10
45.067223
 20
24.437740
 30
0.0
 10
45.067223
 20
26.561527
 30
0.0
 10
45.067223
 20
28.685313
 30
0.0
 10
45.067223
 20
30.809103
 30
0.0
 10
44.636746
 20
30.809103
 30
0.0
 10
44.206266
 20
30.809103
 30
0.0
 10
43.775789
 20
30.809103
 30
0.0
 10
43.345312
 20
30.809103
 30
0.0
 10
43.345312
 20
30.973822
 30
0.0
 10
43.345312
 20
31.138543
 30
0.0
 10
43.345312
 20
31.303265
 30
0.0
 10
43.345312
 20
31.467986
 30
0.0
 10
43.775789
 20
31.599754
 30
0.0
 10
44.206266
 20
31.731522
 30
0.0
 10
44.636746
 20
31.863290
 30
0.0
 10
45.067223
 20
31.995058
 30
0.0
 10
45.067223
 20
32.129045
 30
0.0
 10
45.067223
 20
32.263036
 30
0.0
 10
45.067223
 20
32.397023
 30
0.0
 10
45.067223
 20
32.531011
 30
0.0
 10
45.261025
 20
34.083795
 30
0.0
 10
45.842444
 20
35.192904
 30
0.0
 10
46.811494
 20
35.858361
 30
0.0
 10
48.168192
 20
36.080174
 30
0.0
 10
48.566866
 20
36.060939
 30
0.0
 10
48.998434
 20
36.003268
 30
0.0
 10
49.462944
 20
35.907171
 30
0.0
 10
49.960445
 20
35.772665
 30
0.0
 10
49.865984
 20
35.480570
 30
0.0
 10
49.771522
 20
35.188478
 30
0.0
 10
49.677061
 20
34.896386
 30
0.0
 10
49.582599
 20
34.604294
 30
0.0
 10
49.176292
 20
34.723462
 30
0.0
 10
48.800740
 20
34.808563
 30
0.0
 10
48.455942
 20
34.859611
 30
0.0
 10
48.141898
 20
34.876624
 30
0.0
 10
47.755892
 20
34.842310
 30
0.0
 10
47.423724
 20
34.739372
 30
0.0
 10
47.145361
 20
34.567802
 30
0.0
 10
46.920769
 20
34.327611
 30
0.0
 10
46.747792
 20
34.011643
 30
0.0
 10
46.624280
 20
33.612747
 30
0.0
 10
46.550196
 20
33.130924
 30
0.0
 10
46.525511
 20
32.566177
 30
0.0
 10
46.525511
 20
32.410247
 30
0.0
 10
46.525511
 20
32.254320
 30
0.0
 10
46.525511
 20
32.098393
 30
0.0
 10
46.525511
 20
31.942464
 30
0.0
 10
47.138251
 20
31.942464
 30
0.0
 10
47.750992
 20
31.942464
 30
0.0
 10
48.363735
 20
31.942464
 30
0.0
 10
48.976476
 20
31.942464
 30
0.0
 10
48.976476
 20
31.659121
 30
0.0
 10
48.976476
 20
31.375779
 30
0.0
 10
48.976476
 20
31.092437
 30
0.0
  0
LWPOLYLINE
  5
109
100
AcDbEntity
  8
0
 62
7
100
AcDbPolyline
 90
16
 70
1
 10
52.191841
 20
22.313953
 30
0.0
 10
51.827269
 20
22.313953
 30
0.0
 10
51.462699
 20
22.313953
 30
0.0
 10
51.098127
 20
22.313953
 30
0.0
 10
50.733555
 20
22.313953
 30
0.0
 10
50.733555
 20
25.731349
 30
0.0
 10
50.733555
 20
29.148744
 30
0.0
 10
50.733555
 20
32.566140
 30
0.0
 10
50.733555
 20
35.983535
 30
0.0
 10
51.098127
 20
35.983535
 30
0.0
 10
51.462699
 20
35.983535
 30
0.0
 10
51.827269
 20
35.983535
 30
0.0
 10
52.191841
 20
35.983535
 30
0.0
 10
52.191841
 20
32.566140
 30
0.0
 10
52.191841
 20
29.148744
 30
0.0
 10
52.191841
 20
25.731349
 30
0.0
  0
LWPOLYLINE
  5
10a
100
AcDbEntity
  8
0
 62
7
100
AcDbPolyline
 90
56
 70
1
 10
59.351635
 20
22.138262
 30
0.0
 10
58.340482
 20
22.219524
 30
0.0
 10
57.441933
 20
22.463308
 30
0.0
 10
56.655954
 20
22.869615
 30
0.0
 10
55.982515
 20
23.438446
 30
0.0
 10
55.442509
 20
24.151680
 30
0.0
 10
55.056831
 20
24.991214
 30
0.0
 10
54.825448
 20
25.957065
 30
0.0
 10
54.748327
 20
27.049249
 30
0.0
 10
54.819963
 20
28.153376
 30
0.0
 10
55.034889
 20
29.137817
 30
0.0
 10
55.393143
 20
30.002570
 30
0.0
 10
55.894756
 20
30.747635
 30
0.0
 10
56.517090
 20
31.347217
 30
0.0
 10
57.237731
 20
31.775509
 30
0.0
 10
58.056640
 20
32.032496
 30
0.0
 10
58.973786
 20
32.118163
 30
0.0
 10
59.831452
 20
32.043757
 30
0.0
 10
60.594682
 20
31.820541
 30
0.0
 10
61.263461
 20
31.448516
 30
0.0
 10
61.837774
 20
30.927681
 30
0.0
 10
62.298961
 20
30.285066
 30
0.0
 10
62.628383
 20
29.547445
 30
0.0
 10
62.826035
 20
28.714817
 30
0.0
 10
62.891919
 20
27.787185
 30
0.0
 10
62.891919
 20
27.556558
 30
0.0
 10
62.891919
 20
27.325932
 30
0.0
 10
62.891919
 20
27.095305
 30
0.0
 10
62.891919
 20
26.864678
 30
0.0
 10
61.233738
 20
26.864678
 30
0.0
 10
59.575557
 20
26.864678
 30
0.0
 10
57.917379
 20
26.864678
 30
0.0
 10
56.259198
 20
26.864678
 30
0.0
 10
56.329270
 20
26.067957
 30
0.0
 10
56.495376
 20
25.373394
 30
0.0
 10
56.757565
 20
24.780955
 30
0.0
 10
57.115887
 20
24.290605
 30
0.0
 10
57.563623
 20
23.906306
 30
0.0
 10
58.094287
 20
23.631787
 30
0.0
 10
58.707877
 20
23.467063
 30
0.0
 10
59.404393
 20
23.412152
 30
0.0
 10
60.179625
 20
23.452797
 30
0.0
 10
60.950483
 20
23.574719
 30
0.0
 10
61.716962
 20
23.777901
 30
0.0
 10
62.479071
 20
24.062331
 30
0.0
 10
62.479071
 20
23.737285
 30
0.0
 10
62.479071
 20
23.412239
 30
0.0
 10
62.479071
 20
23.087193
 30
0.0
 10
62.479071
 20
22.762147
 30
0.0
 10
62.097740
 20
22.606966
 30
0.0
 10
61.726855
 20
22.475452
 30
0.0
 10
61.366419
 20
22.367579
 30
0.0
 10
61.016430
 20
22.283307
 30
0.0
 10
60.653710
 20
22.219876
 30
0.0
 10
60.255338
 20
22.174547
 30
0.0
 10
59.821313
 20
22.147337
 30
0.0
  0
LWPOLYLINE
  5
10b
100
AcDbEntity
  8
0
 62
7
100
AcDbPolyline
 90
20
 70
1
 10
58.956199
 20
30.897034
 30
0.0
 10
58.405824
 20
30.849822
 30
0.0
 10
57.914135
 20
30.708175
 30
0.0
 10
57.481179
 20
30.472076
 30
0.0
 10
57.107005
 20
30.141511
 30
0.0
 10
56.797633
 20
29.727494
 30
0.0
 10
56.559058
 20
29.241031
 30
0.0
 10
56.391299
 20
28.682088
 30
0.0
 10
56.294369
 20
28.050633
 30
0.0
 10
57.552849
 20
28.050633
 30
0.0
 10
58.811329
 20
28.050633
 30
0.0
 10
60.069807
 20
28.050633
 30
0.0
 10
61.328287
 20
28.050633
 30
0.0
 10
61.289832
 20
28.699939
 30
0.0
 10
61.174492
 20
29.268521
 30
0.0
 10
60.982296
 20
29.756362
 30
0.0
 10
60.713281
 20
30.163450
 30
0.0
 10
60.372895
 20
30.484419
 30
0.0
 10
59.966574
 20
30.713659
 30
0.0
 10
59.494338
 20
30.851192
 30
0.0
  0
LWPOLYLINE
  5
10c
100
AcDbEntity
  8
0
 62
7
100
AcDbPolyline
 90
48
 70
1
 10
67.337122
 20
27.242524
 30
0.0
 10
66.500370
 20
28.417513
 30
0.0
 10
65.663620
 20
29.592498
 30
0.0
 10
64.826867
 20
30.767486
 30
0.0
 10
63.990117
 20
31.942472
 30
0.0
 10
64.405185
 20
31.942472
 30
0.0
 10
64.820252
 20
31.942472
 30
0.0
 10
65.235317
 20
31.942472
 30
0.0
 10
65.650385
 20
31.942472
 30
0.0
 10
66.285110
 20
31.020052
 30
0.0
 10
66.919835
 20
30.097633
 30
0.0
 10
67.554560
 20
29.175210
 30
0.0
 10
68.189285
 20
28.252791
 30
0.0
 10
68.821832
 20
29.175210
 30
0.0
 10
69.454379
 20
30.097633
 30
0.0
 10
70.086926
 20
31.020052
 30
0.0
 10
70.719474
 20
31.942472
 30
0.0
 10
71.130144
 20
31.942472
 30
0.0
 10
71.540814
 20
31.942472
 30
0.0
 10
71.951488
 20
31.942472
 30
0.0
 10
72.362158
 20
31.942472
 30
0.0
 10
71.525405
 20
30.767486
 30
0.0
 10
70.688655
 20
29.592498
 30
0.0
 10
69.851902
 20
28.417513
 30
0.0
 10
69.015152
 20
27.242524
 30
0.0
 10
69.895826
 20
26.010384
 30
0.0
 10
70.776499
 20
24.778240
 30
0.0
 10
71.657176
 20
23.546097
 30
0.0
 10
72.537849
 20
22.313953
 30
0.0
 10
72.124959
 20
22.313953
 30
0.0
 10
71.712066
 20
22.313953
 30
0.0
 10
71.299176
 20
22.313953
 30
0.0
 10
70.886286
 20
22.313953
 30
0.0
 10
70.212035
 20
23.289134
 30
0.0
 10
69.537784
 20
24.264314
 30
0.0
 10
68.863535
 20
25.239494
 30
0.0
 10
68.189285
 20
26.214674
 30
0.0
 10
67.508461
 20
25.239494
 30
0.0
 10
66.827635
 20
24.264314
 30
0.0
 10
66.146812
 20
23.289134
 30
0.0
 10
65.465989
 20
22.313953
 30
0.0
 10
65.053099
 20
22.313953
 30
0.0
 10
64.640206
 20
22.313953
 30
0.0
 10
64.227316
 20
22.313953
 30
0.0
 10
63.814426
 20
22.313953
 30
0.0
 10
64.695099
 20
23.546097
 30
0.0
 10
65.575773
 20
24.778240
 30
0.0
 10
66.456449
 20
26.010384
 30
0.0
  0
LWPOLYLINE
  5
10d
100
AcDbEntity
  8
0
 62
7
100
AcDbPolyline
 90
68
 70
1
 10
75.814682
 20
31.942472
 30
0.0
 10
75.814682
 20
30.380930
 30
0.0
 10
75.814682
 20
28.819391
 30
0.0
 10
75.814682
 20
27.257849
 30
0.0
 10
75.814682
 20
25.696307
 30
0.0
 10
75.848178
 20
25.145045
 30
0.0
 10
75.948670
 20
24.668433
 30
0.0
 10
76.116156
 20
24.266488
 30
0.0
 10
76.350635
 20
23.939225
 30
0.0
 10
76.656483
 20
23.685548
 30
0.0
 10
77.038076
 20
23.504351
 30
0.0
 10
77.495413
 20
23.395631
 30
0.0
 10
78.028493
 20
23.359394
 30
0.0
 10
78.733274
 20
23.411009
 30
0.0
 10
79.336421
 20
23.565859
 30
0.0
 10
79.837968
 20
23.823944
 30
0.0
 10
80.237946
 20
24.185261
 30
0.0
 10
80.543501
 20
24.663525
 30
0.0
 10
80.761755
 20
25.272445
 30
0.0
 10
80.892706
 20
26.012027
 30
0.0
 10
80.936357
 20
26.882263
 30
0.0
 10
80.936357
 20
28.147315
 30
0.0
 10
80.936357
 20
29.412367
 30
0.0
 10
80.936357
 20
30.677419
 30
0.0
 10
80.936357
 20
31.942472
 30
0.0
 10
81.300974
 20
31.942472
 30
0.0
 10
81.665588
 20
31.942472
 30
0.0
 10
82.030205
 20
31.942472
 30
0.0
 10
82.394819
 20
31.942472
 30
0.0
 10
82.394819
 20
29.535343
 30
0.0
 10
82.394819
 20
27.128214
 30
0.0
 10
82.394819
 20
24.721082
 30
0.0
 10
82.394819
 20
22.313953
 30
0.0
 10
82.093890
 20
22.313953
 30
0.0
 10
81.792961
 20
22.313953
 30
0.0
 10
81.492029
 20
22.313953
 30
0.0
 10
81.191100
 20
22.313953
 30
0.0
 10
81.138429
 20
22.636822
 30
0.0
 10
81.085756
 20
22.959690
 30
0.0
 10
81.033086
 20
23.282561
 30
0.0
 10
80.980412
 20
23.605430
 30
0.0
 10
80.960648
 20
23.605430
 30
0.0
 10
80.940884
 20
23.605430
 30
0.0
 10
80.921119
 20
23.605430
 30
0.0
 10
80.901355
 20
23.605430
 30
0.0
 10
80.655578
 20
23.270531
 30
0.0
 10
80.366447
 20
22.977322
 30
0.0
 10
80.033955
 20
22.725838
 30
0.0
 10
79.658109
 20
22.516111
 30
0.0
 10
79.246606
 20
22.350852
 30
0.0
 10
78.807125
 20
22.232769
 30
0.0
 10
78.339630
 20
22.161895
 30
0.0
 10
77.844089
 20
22.138267
 30
0.0
 10
77.020767
 20
22.190435
 30
0.0
 10
76.307797
 20
22.346934
 30
0.0
 10
75.705176
 20
22.607741
 30
0.0
 10
75.212906
 20
22.972843
 30
0.0
 10
74.830535
 20
23.452776
 30
0.0
 10
74.557374
 20
24.057851
 30
0.0
 10
74.393451
 20
24.788099
 30
0.0
 10
74.338804
 20
25.643552
 30
0.0
 10
74.338804
 20
27.218283
 30
0.0
 10
74.338804
 20
28.793015
 30
0.0
 10
74.338804
 20
30.367746
 30
0.0
 10
74.338804
 20
31.942477
 30
0.0
 10
74.707774
 20
31.942477
 30
0.0
 10
75.076741
 20
31.942477
 30
0.0
 10
75.445710
 20
31.942477
 30
0.0
  0
LWPOLYLINE
  5
10e
100
AcDbEntity
  8
0
 62
7
100
AcDbPolyline
 90
52
 70
1
 10
89.879525
 20
32.118163
 30
0.0
 10
90.192003
 20
32.111575
 30
0.0
 10
90.487979
 20
32.091784
 30
0.0
 10
90.767466
 20
32.058809
 30
0.0
 10
91.030483
 20
32.012644
 30
0.0
 10
90.979945
 20
31.674454
 30
0.0
 10
90.929404
 20
31.336261
 30
0.0
 10
90.878866
 20
30.998071
 30
0.0
 10
90.828326
 20
30.659878
 30
0.0
 10
90.538443
 20
30.717469
 30
0.0
 10
90.266123
 20
30.758607
 30
0.0
 10
90.011369
 20
30.783292
 30
0.0
 10
89.774181
 20
30.791521
 30
0.0
 10
89.211065
 20
30.732230
 30
0.0
 10
88.690262
 20
30.554364
 30
0.0
 10
88.211768
 20
30.257917
 30
0.0
 10
87.775590
 20
29.842894
 30
0.0
 10
87.412343
 20
29.339361
 30
0.0
 10
87.152901
 20
28.777650
 30
0.0
 10
86.997246
 20
28.157758
 30
0.0
 10
86.945367
 20
27.479686
 30
0.0
 10
86.945367
 20
26.188255
 30
0.0
 10
86.945367
 20
24.896824
 30
0.0
 10
86.945367
 20
23.605393
 30
0.0
 10
86.945367
 20
22.313959
 30
0.0
 10
86.580795
 20
22.313959
 30
0.0
 10
86.216225
 20
22.313959
 30
0.0
 10
85.851653
 20
22.313959
 30
0.0
 10
85.487081
 20
22.313959
 30
0.0
 10
85.487081
 20
24.721088
 30
0.0
 10
85.487081
 20
27.128219
 30
0.0
 10
85.487081
 20
29.535348
 30
0.0
 10
85.487081
 20
31.942477
 30
0.0
 10
85.787968
 20
31.942477
 30
0.0
 10
86.088852
 20
31.942477
 30
0.0
 10
86.389739
 20
31.942477
 30
0.0
 10
86.690623
 20
31.942477
 30
0.0
 10
86.732369
 20
31.496633
 30
0.0
 10
86.774118
 20
31.050791
 30
0.0
 10
86.815864
 20
30.604947
 30
0.0
 10
86.857610
 20
30.159103
 30
0.0
 10
86.875152
 20
30.159103
 30
0.0
 10
86.892694
 20
30.159103
 30
0.0
 10
86.910235
 20
30.159103
 30
0.0
 10
86.927777
 20
30.159103
 30
0.0
 10
87.209469
 20
30.602204
 30
0.0
 10
87.518600
 20
30.991501
 30
0.0
 10
87.855190
 20
31.326995
 30
0.0
 10
88.219254
 20
31.608684
 30
0.0
 10
88.606291
 20
31.831535
 30
0.0
 10
89.012038
 20
31.990753
 30
0.0
 10
89.436459
 20
32.086310
 30
0.0
  0
LWPOLYLINE
  5
10f
100
AcDbEntity
  8
0
 62
7
100
AcDbPolyline
 90
56
 70
1
 10
96.538714
 20
22.138262
 30
0.0
 10
95.527561
 20
22.219524
 30
0.0
 10
94.629010
 20
22.463308
 30
0.0
 10
93.843033
 20
22.869615
 30
0.0
 10
93.169594
 20
23.438446
 30
0.0
 10
92.629561
 20
24.151680
 30
0.0
 10
92.243823
 20
24.991214
 30
0.0
 10
92.012378
 20
25.957065
 30
0.0
 10
91.935231
 20
27.049249
 30
0.0
 10
92.006891
 20
28.153376
 30
0.0
 10
92.221860
 20
29.137817
 30
0.0
 10
92.580121
 20
30.002570
 30
0.0
 10
93.081660
 20
30.747635
 30
0.0
 10
93.704071
 20
31.347217
 30
0.0
 10
94.424720
 20
31.775509
 30
0.0
 10
95.243642
 20
32.032496
 30
0.0
 10
96.160865
 20
32.118163
 30
0.0
 10
97.018507
 20
32.043757
 30
0.0
 10
97.781695
 20
31.820541
 30
0.0
 10
98.450466
 20
31.448516
 30
0.0
 10
99.024850
 20
30.927681
 30
0.0
 10
99.486040
 20
30.285066
 30
0.0
 10
99.815460
 20
29.547445
 30
0.0
 10
100.013111
 20
28.714817
 30
0.0
 10
100.078995
 20
27.787185
 30
0.0
 10
100.078995
 20
27.556558
 30
0.0
 10
100.078995
 20
27.325932
 30
0.0
 10
100.078995
 20
27.095305
 30
0.0
 10
100.078995
 20
26.864678
 30
0.0
 10
98.420814
 20
26.864678
 30
0.0
 10
96.762634
 20
26.864678
 30
0.0
 10
95.104455
 20
26.864678
 30
0.0
 10
93.446275
 20
26.864678
 30
0.0
 10
93.516270
 20
26.067957
 30
0.0
 10
93.682365
 20
25.373394
 30
0.0
 10
93.944543
 20
24.780955
 30
0.0
 10
94.302789
 20
24.290605
 30
0.0
 10
94.750625
 20
23.906306
 30
0.0
 10
95.281321
 20
23.631787
 30
0.0
 10
95.894880
 20
23.467063
 30
0.0
 10
96.591297
 20
23.412152
 30
0.0
 10
97.366630
 20
23.452797
 30
0.0
 10
98.137538
 20
23.574719
 30
0.0
 10
98.904039
 20
23.777901
 30
0.0
 10
99.666150
 20
24.062331
 30
0.0
 10
99.666150
 20
23.737285
 30
0.0
 10
99.666150
 20
23.412239
 30
0.0
 10
99.666150
 20
23.087193
 30
0.0
 10
99.666150
 20
22.762147
 30
0.0
 10
99.284816
 20
22.606966
 30
0.0
 10
98.913913
 20
22.475452
 30
0.0
 10
98.553423
 20
22.367579
 30
0.0
 10
98.203335
 20
22.283307
 30
0.0
 10
97.840713
 20
22.219876
 30
0.0
 10
97.442393
 20
22.174547
 30
0.0
 10
97.008386
 20
22.147337
 30
0.0
  0
LWPOLYLINE
  5
110
100
AcDbEntity
  8
0
 62
7
100
AcDbPolyline
 90
20
 70
1
 10
96.143278
 20
30.897034
 30
0.0
 10
95.592829
 20
30.849822
 30
0.0
 10
95.101148
 20
30.708175
 30
0.0
 10
94.668232
 20
30.472076
 30
0.0
 10
94.294084
 20
30.141511
 30
0.0
 10
93.984712
 20
29.727494
 30
0.0
 10
93.746137
 20
29.241031
 30
0.0
 10
93.578378
 20
28.682088
 30
0.0
 10
93.481448
 20
28.050633
 30
0.0
 10
94.739883
 20
28.050633
 30
0.0
 10
95.998321
 20
28.050633
 30
0.0
 10
97.256756
 20
28.050633
 30
0.0
 10
98.515191
 20
28.050633
 30
0.0
 10
98.476763
 20
28.699939
 30
0.0
 10
98.361484
 20
29.268521
 30
0.0
 10
98.169349
 20
29.756362
 30
0.0
 10
97.900360
 20
30.163450
 30
0.0
 10
97.559900
 20
30.484419
 30
0.0
 10
97.153587
 20
30.713659
 30
0.0
 10
96.681391
 20
30.851192
 30
0.0
  0
LWPOLYLINE
  5
111
100
AcDbEntity
  8
0
 62
7
100
AcDbPolyline
 90
108
 70
1
 10
16.419256
 20
4.322274
 30
0.0
 10
16.419256
 20
5.888213
 30
0.0
 10
16.419256
 20
7.454149
 30
0.0
 10
16.419256
 20
9.020086
 30
0.0
 10
16.419256
 20
10.586025
 30
0.0
 10
16.385207
 20
11.237222
 30
0.0
 10
16.283070
 20
11.793988
 30
0.0
 10
16.112860
 20
12.256300
 30
0.0
 10
15.874595
 20
12.624144
 30
0.0
 10
15.565969
 20
12.904687
 30
0.0
 10
15.184914
 20
13.105096
 30
0.0
 10
14.731410
 20
13.225352
 30
0.0
 10
14.205445
 20
13.265442
 30
0.0
 10
13.519671
 20
13.214933
 30
0.0
 10
12.929423
 20
13.063393
 30
0.0
 10
12.434705
 20
12.810805
 30
0.0
 10
12.035515
 20
12.457158
 30
0.0
 10
11.728032
 20
11.995447
 30
0.0
 10
11.508422
 20
11.418422
 30
0.0
 10
11.376668
 20
10.726087
 30
0.0
 10
11.332752
 20
9.918436
 30
0.0
 10
11.332752
 20
8.519396
 30
0.0
 10
11.332752
 20
7.120356
 30
0.0
 10
11.332752
 20
5.721313
 30
0.0
 10
11.332752
 20
4.322274
 30
0.0
 10
11.110918
 20
4.322274
 30
0.0
 10
10.889086
 20
4.322274
 30
0.0
 10
10.667254
 20
4.322274
 30
0.0
 10
10.445419
 20
4.322274
 30
0.0
 10
10.445419
 20
5.954118
 30
0.0
 10
10.445419
 20
7.585962
 30
0.0
 10
10.445419
 20
9.217803
 30
0.0
 10
10.445419
 20
10.849648
 30
0.0
 10
10.307055
 20
11.906534
 30
0.0
 10
9.891966
 20
12.661472
 30
0.0
 10
9.200153
 20
13.114447
 30
0.0
 10
8.231611
 20
13.265442
 30
0.0
 10
7.531529
 20
13.210818
 30
0.0
 10
6.933605
 20
13.046938
 30
0.0
 10
6.437805
 20
12.773785
 30
0.0
 10
6.044094
 20
12.391340
 30
0.0
 10
5.744279
 20
11.888653
 30
0.0
 10
5.530167
 20
11.254770
 30
0.0
 10
5.401723
 20
10.489671
 30
0.0
 10
5.358916
 20
9.593345
 30
0.0
 10
5.358916
 20
8.275577
 30
0.0
 10
5.358916
 20
6.957809
 30
0.0
 10
5.358916
 20
5.640041
 30
0.0
 10
5.358916
 20
4.322274
 30
0.0
 10
5.141479
 20
4.322274
 30
0.0
 10
4.924041
 20
4.322274
 30
0.0
 10
4.706607
 20
4.322274
 30
0.0
 10
4.489170
 20
4.322274
 30
0.0
 10
4.489170
 20
6.709596
 30
0.0
 10
4.489170
 20
9.096918
 30
0.0
 10
4.489170
 20
11.484243
 30
0.0
 10
4.489170
 20
13.871565
 30
0.0
 10
4.669256
 20
13.871565
 30
0.0
 10
4.849344
 20
13.871565
 30
0.0
 10
5.029433
 20
13.871565
 30
0.0
 10
5.209519
 20
13.871565
 30
0.0
 10
5.255617
 20
13.544344
 30
0.0
 10
5.301716
 20
13.217121
 30
0.0
 10
5.347817
 20
12.889900
 30
0.0
 10
5.393915
 20
12.562676
 30
0.0
 10
5.407091
 20
12.562676
 30
0.0
 10
5.420267
 20
12.562676
 30
0.0
 10
5.433470
 20
12.562676
 30
0.0
 10
5.446646
 20
12.562676
 30
0.0
 10
5.665197
 20
12.898396
 30
0.0
 10
5.925442
 20
13.194070
 30
0.0
 10
6.227411
 20
13.449687
 30
0.0
 10
6.571136
 20
13.665230
 30
0.0
 10
6.945061
 20
13.836201
 30
0.0
 10
7.337629
 20
13.958364
 30
0.0
 10
7.748871
 20
14.031688
 30
0.0
 10
8.178821
 20
14.056136
 30
0.0
 10
9.206648
 20
13.950159
 30
0.0
 10
10.032434
 20
13.632231
 30
0.0
 10
10.656160
 20
13.102352
 30
0.0
 10
11.077808
 20
12.360519
 30
0.0
 10
11.086592
 20
12.360519
 30
0.0
 10
11.095376
 20
12.360519
 30
0.0
 10
11.104160
 20
12.360519
 30
0.0
 10
11.112945
 20
12.360519
 30
0.0
 10
11.365809
 20
12.745482
 30
0.0
 10
11.658735
 20
13.083154
 30
0.0
 10
11.991753
 20
13.373585
 30
0.0
 10
12.364895
 20
13.616821
 30
0.0
 10
12.771432
 20
13.809023
 30
0.0
 10
13.204889
 20
13.946307
 30
0.0
 10
13.665279
 20
14.028680
 30
0.0
 10
14.152623
 20
14.056136
 30
0.0
 10
14.885609
 20
14.003968
 30
0.0
 10
15.520866
 20
13.847472
 30
0.0
 10
16.058404
 20
13.586664
 30
0.0
 10
16.498245
 20
13.221563
 30
0.0
 10
16.840264
 20
12.742736
 30
0.0
 10
17.084582
 20
12.140973
 30
0.0
 10
17.231188
 20
11.416221
 30
0.0
 10
17.280059
 20
10.568438
 30
0.0
 10
17.280059
 20
9.006896
 30
0.0
 10
17.280059
 20
7.445357
 30
0.0
 10
17.280059
 20
5.883815
 30
0.0
 10
17.280059
 20
4.322274
 30
0.0
 10
17.064842
 20
4.322274
 30
0.0
 10
16.849624
 20
4.322274
 30
0.0
 10
16.634410
 20
4.322274
 30
0.0
  0
LWPOLYLINE
  5
112
100
AcDbEntity
  8
0
 62
7
100
AcDbPolyline
 90
16
 70
1
 10
21.242134
 20
4.322274
 30
0.0
 10
21.024739
 20
4.322274
 30
0.0
 10
20.807347
 20
4.322274
 30
0.0
 10
20.589954
 20
4.322274
 30
0.0
 10
20.372559
 20
4.322274
 30
0.0
 10
20.372559
 20
6.709596
 30
0.0
 10
20.372559
 20
9.096918
 30
0.0
 10
20.372559
 20
11.484243
 30
0.0
 10
20.372559
 20
13.871565
 30
0.0
 10
20.589954
 20
13.871565
 30
0.0
 10
20.807347
 20
13.871565
 30
0.0
 10
21.024739
 20
13.871565
 30
0.0
 10
21.242134
 20
13.871565
 30
0.0
 10
21.242134
 20
11.484243
 30
0.0
 10
21.242134
 20
9.096918
 30
0.0
 10
21.242134
 20
6.709596
 30
0.0
  0
LWPOLYLINE
  5
113
100
AcDbEntity
  8
0
 62
7
100
AcDbPolyline
 90
24
 70
1
 10
20.249454
 20
16.524688
 30
0.0
 10
20.284059
 20
16.893675
 30
0.0
 10
20.387860
 20
17.157259
 30
0.0
 10
20.560845
 20
17.315419
 30
0.0
 10
20.802994
 20
17.368145
 30
0.0
 10
20.931690
 20
17.354413
 30
0.0
 10
21.045612
 20
17.313196
 30
0.0
 10
21.144746
 20
17.244524
 30
0.0
 10
21.229074
 20
17.148411
 30
0.0
 10
21.296291
 20
17.027057
 30
0.0
 10
21.344345
 20
16.882653
 30
0.0
 10
21.373200
 20
16.715201
 30
0.0
 10
21.382831
 20
16.524698
 30
0.0
 10
21.373200
 20
16.337503
 30
0.0
 10
21.344345
 20
16.171120
 30
0.0
 10
21.296291
 20
16.025599
 30
0.0
 10
21.229074
 20
15.900988
 30
0.0
 10
21.144746
 20
15.801015
 30
0.0
 10
21.045612
 20
15.729628
 30
0.0
 10
20.931690
 20
15.686808
 30
0.0
 10
20.802994
 20
15.672547
 30
0.0
 10
20.560845
 20
15.725799
 30
0.0
 10
20.387860
 20
15.885565
 30
0.0
 10
20.284059
 20
16.151863
 30
0.0
  0
LWPOLYLINE
  5
114
100
AcDbEntity
  8
0
 62
7
100
AcDbPolyline
 90
56
 70
1
 10
28.252703
 20
4.146582
 30
0.0
 10
27.284685
 20
4.227291
 30
0.0
 10
26.427560
 20
4.469430
 30
0.0
 10
25.681339
 20
4.873014
 30
0.0
 10
25.046040
 20
5.438059
 30
0.0
 10
24.538787
 20
6.147406
 30
0.0
 10
24.176445
 20
6.984146
 30
0.0
 10
23.959026
 20
7.948280
 30
0.0
 10
23.886549
 20
9.039808
 30
0.0
 10
23.961770
 20
10.160228
 30
0.0
 10
24.187436
 20
11.149402
 30
0.0
 10
24.563544
 20
12.007332
 30
0.0
 10
25.090094
 20
12.734015
 30
0.0
 10
25.747305
 20
13.312442
 30
0.0
 10
26.515404
 20
13.725605
 30
0.0
 10
27.394411
 20
13.973504
 30
0.0
 10
28.384339
 20
14.056136
 30
0.0
 10
28.997145
 20
14.029233
 30
0.0
 10
29.596763
 20
13.948527
 30
0.0
 10
30.183190
 20
13.814018
 30
0.0
 10
30.756426
 20
13.625704
 30
0.0
 10
30.697136
 20
13.432425
 30
0.0
 10
30.637848
 20
13.239147
 30
0.0
 10
30.578557
 20
13.045872
 30
0.0
 10
30.519269
 20
12.852594
 30
0.0
 10
29.920205
 20
13.033238
 30
0.0
 10
29.361805
 20
13.162251
 30
0.0
 10
28.844050
 20
13.239647
 30
0.0
 10
28.366926
 20
13.265444
 30
0.0
 10
27.541678
 20
13.197634
 30
0.0
 10
26.822929
 20
12.994201
 30
0.0
 10
26.210678
 20
12.655151
 30
0.0
 10
25.704924
 20
12.180478
 30
0.0
 10
25.309097
 20
11.578440
 30
0.0
 10
25.026363
 20
10.857268
 30
0.0
 10
24.856723
 20
10.016932
 30
0.0
 10
24.800176
 20
9.057397
 30
0.0
 10
24.856723
 20
8.143471
 30
0.0
 10
25.026363
 20
7.334444
 30
0.0
 10
25.309097
 20
6.630282
 30
0.0
 10
25.704924
 20
6.030953
 30
0.0
 10
26.202423
 20
5.552496
 30
0.0
 10
26.789933
 20
5.210721
 30
0.0
 10
27.467486
 20
5.005645
 30
0.0
 10
28.235116
 20
4.937282
 30
0.0
 10
28.873680
 20
4.966373
 30
0.0
 10
29.489175
 20
5.053661
 30
0.0
 10
30.081590
 20
5.199161
 30
0.0
 10
30.650908
 20
5.402887
 30
0.0
 10
30.650908
 20
5.200817
 30
0.0
 10
30.650908
 20
4.998747
 30
0.0
 10
30.650908
 20
4.796677
 30
0.0
 10
30.650908
 20
4.594607
 30
0.0
 10
30.158410
 20
4.398622
 30
0.0
 10
29.594543
 20
4.258612
 30
0.0
 10
28.959307
 20
4.174594
 30
0.0
  0
LWPOLYLINE
  5
115
100
AcDbEntity
  8
0
 62
7
100
AcDbPolyline
 90
52
 70
1
 10
36.747850
 20
14.056136
 30
0.0
 10
37.056343
 20
14.048436
 30
0.0
 10
37.375870
 20
14.025365
 30
0.0
 10
37.706432
 20
13.986944
 30
0.0
 10
38.048031
 20
13.933210
 30
0.0
 10
38.006285
 20
13.724523
 30
0.0
 10
37.964539
 20
13.515835
 30
0.0
 10
37.922793
 20
13.307148
 30
0.0
 10
37.881047
 20
13.098460
 30
0.0
 10
37.579612
 20
13.163823
 30
0.0
 10
37.272658
 20
13.210509
 30
0.0
 10
36.960220
 20
13.238523
 30
0.0
 10
36.642331
 20
13.247863
 30
0.0
 10
36.059240
 20
13.183085
 30
0.0
 10
35.531031
 20
12.988746
 30
0.0
 10
35.057734
 20
12.664824
 30
0.0
 10
34.639385
 20
12.211305
 30
0.0
 10
34.297292
 20
11.658931
 30
0.0
 10
34.052981
 20
11.038473
 30
0.0
 10
33.906418
 20
10.349940
 30
0.0
 10
33.857570
 20
9.593353
 30
0.0
 10
33.857570
 20
8.275585
 30
0.0
 10
33.857570
 20
6.957817
 30
0.0
 10
33.857570
 20
5.640049
 30
0.0
 10
33.857570
 20
4.322281
 30
0.0
 10
33.640133
 20
4.322281
 30
0.0
 10
33.422696
 20
4.322281
 30
0.0
 10
33.205259
 20
4.322281
 30
0.0
 10
32.987821
 20
4.322281
 30
0.0
 10
32.987821
 20
6.709604
 30
0.0
 10
32.987821
 20
9.096926
 30
0.0
 10
32.987821
 20
11.484251
 30
0.0
 10
32.987821
 20
13.871573
 30
0.0
 10
33.172305
 20
13.871573
 30
0.0
 10
33.356788
 20
13.871573
 30
0.0
 10
33.541274
 20
13.871573
 30
0.0
 10
33.725758
 20
13.871573
 30
0.0
 10
33.747691
 20
13.441141
 30
0.0
 10
33.769625
 20
13.010706
 30
0.0
 10
33.791559
 20
12.580274
 30
0.0
 10
33.813493
 20
12.149839
 30
0.0
 10
33.828866
 20
12.149839
 30
0.0
 10
33.844238
 20
12.149839
 30
0.0
 10
33.859610
 20
12.149839
 30
0.0
 10
33.874983
 20
12.149839
 30
0.0
 10
34.174269
 20
12.637665
 30
0.0
 10
34.483413
 20
13.046988
 30
0.0
 10
34.802419
 20
13.377794
 30
0.0
 10
35.131285
 20
13.630064
 30
0.0
 10
35.482750
 20
13.816450
 30
0.0
 10
35.869309
 20
13.949601
 30
0.0
 10
36.290999
 20
14.029505
 30
0.0
  0
LWPOLYLINE
  5
116
100
AcDbEntity
  8
0
 62
7
100
AcDbPolyline
 90
36
 70
1
 10
47.526977
 20
9.110152
 30
0.0
 10
47.456161
 20
8.005700
 30
0.0
 10
47.243698
 20
7.029178
 30
0.0
 10
46.889577
 20
6.180606
 30
0.0
 10
46.393780
 20
5.459998
 30
0.0
 10
45.773335
 20
4.885355
 30
0.0
 10
45.045278
 20
4.474914
 30
0.0
 10
44.209615
 20
4.228664
 30
0.0
 10
43.266344
 20
4.146582
 30
0.0
 10
42.656866
 20
4.184457
 30
0.0
 10
42.084720
 20
4.298091
 30
0.0
 10
41.549889
 20
4.487503
 30
0.0
 10
41.052361
 20
4.752706
 30
0.0
 10
40.601617
 20
5.088756
 30
0.0
 10
40.206882
 20
5.490687
 30
0.0
 10
39.868139
 20
5.958505
 30
0.0
 10
39.585368
 20
6.492203
 30
0.0
 10
39.362443
 20
7.080814
 30
0.0
 10
39.203233
 20
7.713353
 30
0.0
 10
39.107719
 20
8.389806
 30
0.0
 10
39.075884
 20
9.110152
 30
0.0
 10
39.146700
 20
10.214052
 30
0.0
 10
39.359160
 20
11.188928
 30
0.0
 10
39.713284
 20
12.034777
 30
0.0
 10
40.209081
 20
12.751602
 30
0.0
 10
40.828420
 20
13.322287
 30
0.0
 10
41.553164
 20
13.729960
 30
0.0
 10
42.383329
 20
13.974586
 30
0.0
 10
43.318930
 20
14.056136
 30
0.0
 10
44.249927
 20
13.973504
 30
0.0
 10
45.074901
 20
13.725605
 30
0.0
 10
45.793866
 20
13.312442
 30
0.0
 10
46.406840
 20
12.734015
 30
0.0
 10
46.896925
 20
12.011713
 30
0.0
 10
47.246963
 20
11.166946
 30
0.0
 10
47.456976
 20
10.199749
 30
0.0
  0
LWPOLYLINE
  5
117
100
AcDbEntity
  8
0
 62
7
100
AcDbPolyline
 90
32
 70
1
 10
39.989511
 20
9.110152
 30
0.0
 10
40.043579
 20
8.180335
 30
0.0
 10
40.205795
 20
7.358664
 30
0.0
 10
40.476173
 20
6.645156
 30
0.0
 10
40.854731
 20
6.039829
 30
0.0
 10
41.332142
 20
5.557415
 30
0.0
 10
41.899059
 20
5.212874
 30
0.0
 10
42.555464
 20
5.006171
 30
0.0
 10
43.301343
 20
4.937279
 30
0.0
 10
44.047296
 20
5.006171
 30
0.0
 10
44.703693
 20
5.212874
 30
0.0
 10
45.270568
 20
5.557415
 30
0.0
 10
45.747956
 20
6.039829
 30
0.0
 10
46.126614
 20
6.645156
 30
0.0
 10
46.397045
 20
7.358664
 30
0.0
 10
46.559279
 20
8.180335
 30
0.0
 10
46.613350
 20
9.110152
 30
0.0
 10
46.558727
 20
10.043012
 30
0.0
 10
46.394846
 20
10.864948
 30
0.0
 10
46.121693
 20
11.575982
 30
0.0
 10
45.739248
 20
12.176123
 30
0.0
 10
45.257977
 20
12.652725
 30
0.0
 10
44.688326
 20
12.993135
 30
0.0
 10
44.030262
 20
13.197367
 30
0.0
 10
43.283756
 20
13.265442
 30
0.0
 10
42.538433
 20
13.197632
 30
0.0
 10
41.883695
 20
12.994199
 30
0.0
 10
41.319553
 20
12.655148
 30
0.0
 10
40.846026
 20
12.180475
 30
0.0
 10
40.471251
 20
11.581710
 30
0.0
 10
40.203596
 20
10.870391
 30
0.0
 10
40.043026
 20
10.046531
 30
0.0
  0
LWPOLYLINE
  5
118
100
AcDbEntity
  8
0
 62
7
100
AcDbPolyline
 90
96
 70
1
 10
56.092471
 20
6.808412
 30
0.0
 10
56.031516
 20
6.204231
 30
0.0
 10
55.848655
 20
5.674125
 30
0.0
 10
55.543884
 20
5.218134
 30
0.0
 10
55.117204
 20
4.836288
 30
0.0
 10
54.578612
 20
4.534517
 30
0.0
 10
53.937863
 20
4.318987
 30
0.0
 10
53.194992
 20
4.189680
 30
0.0
 10
52.350030
 20
4.146582
 30
0.0
 10
51.441824
 20
4.183373
 30
0.0
 10
50.632474
 20
4.293738
 30
0.0
 10
49.921986
 20
4.477658
 30
0.0
 10
49.310354
 20
4.735121
 30
0.0
 10
49.310354
 20
4.970146
 30
0.0
 10
49.310354
 20
5.205170
 30
0.0
 10
49.310354
 20
5.440191
 30
0.0
 10
49.310354
 20
5.675215
 30
0.0
 10
50.040596
 20
5.360062
 30
0.0
 10
50.790623
 20
5.134952
 30
0.0
 10
51.560434
 20
4.999887
 30
0.0
 10
52.350030
 20
4.954866
 30
0.0
 10
53.014647
 20
4.984221
 30
0.0
 10
53.594164
 20
5.072312
 30
0.0
 10
54.088570
 20
5.219169
 30
0.0
 10
54.497846
 20
5.424824
 30
0.0
 10
54.818814
 20
5.679279
 30
0.0
 10
55.048055
 20
5.972747
 30
0.0
 10
55.185588
 20
6.305199
 30
0.0
 10
55.231430
 20
6.676600
 30
0.0
 10
55.194925
 20
7.022579
 30
0.0
 10
55.085406
 20
7.339947
 30
0.0
 10
54.902851
 20
7.628745
 30
0.0
 10
54.647245
 20
7.889024
 30
0.0
 10
54.308187
 20
8.133927
 30
0.0
 10
53.875268
 20
8.376592
 30
0.0
 10
53.348451
 20
8.617070
 30
0.0
 10
52.727704
 20
8.855409
 30
0.0
 10
52.065021
 20
9.105461
 30
0.0
 10
51.508816
 20
9.337427
 30
0.0
 10
51.059146
 20
9.551305
 30
0.0
 10
50.716053
 20
9.747097
 30
0.0
 10
50.443966
 20
9.939780
 30
0.0
 10
50.207548
 20
10.144578
 30
0.0
 10
50.006811
 20
10.361454
 30
0.0
 10
49.841777
 20
10.590380
 30
0.0
 10
49.713084
 20
10.838315
 30
0.0
 10
49.621120
 20
11.112008
 30
0.0
 10
49.565917
 20
11.411496
 30
0.0
 10
49.547502
 20
11.736809
 30
0.0
 10
49.603787
 20
12.244751
 30
0.0
 10
49.772644
 20
12.696667
 30
0.0
 10
50.054071
 20
13.092558
 30
0.0
 10
50.448070
 20
13.432425
 30
0.0
 10
50.943007
 20
13.705298
 30
0.0
 10
51.527485
 20
13.900209
 30
0.0
 10
52.201448
 20
14.017155
 30
0.0
 10
52.964853
 20
14.056136
 30
0.0
 10
53.728072
 20
14.019896
 30
0.0
 10
54.471522
 20
13.911178
 30
0.0
 10
55.195221
 20
13.729981
 30
0.0
 10
55.899185
 20
13.476304
 30
0.0
 10
55.817913
 20
13.278631
 30
0.0
 10
55.736641
 20
13.080958
 30
0.0
 10
55.655369
 20
12.883283
 30
0.0
 10
55.574097
 20
12.685610
 30
0.0
 10
54.883881
 20
12.939287
 30
0.0
 10
54.218935
 20
13.120484
 30
0.0
 10
53.579260
 20
13.229202
 30
0.0
 10
52.964853
 20
13.265442
 30
0.0
 10
52.410884
 20
13.241285
 30
0.0
 10
51.917282
 20
13.168805
 30
0.0
 10
51.484078
 20
13.048007
 30
0.0
 10
51.111306
 20
12.878888
 30
0.0
 10
50.811493
 20
12.666941
 30
0.0
 10
50.597379
 20
12.417658
 30
0.0
 10
50.468937
 20
12.131059
 30
0.0
 10
50.426131
 20
11.807159
 30
0.0
 10
50.459336
 20
11.452466
 30
0.0
 10
50.558965
 20
11.135107
 30
0.0
 10
50.725033
 20
10.855064
 30
0.0
 10
50.957554
 20
10.612322
 30
0.0
 10
51.286717
 20
10.381761
 30
0.0
 10
51.742700
 20
10.138008
 30
0.0
 10
52.325521
 20
9.881066
 30
0.0
 10
53.035200
 20
9.610935
 30
0.0
 10
53.636939
 20
9.383864
 30
0.0
 10
54.150853
 20
9.168334
 30
0.0
 10
54.576946
 20
8.964330
 30
0.0
 10
54.915213
 20
8.771832
 30
0.0
 10
55.191155
 20
8.578885
 30
0.0
 10
55.430272
 20
8.373285
 30
0.0
 10
55.632559
 20
8.155052
 30
0.0
 10
55.798019
 20
7.924200
 30
0.0
 10
55.926813
 20
7.676521
 30
0.0
 10
56.018830
 20
7.408032
 30
0.0
 10
56.074053
 20
7.118679
 30
0.0
  0
LWPOLYLINE
  5
119
100
AcDbEntity
  8
0
 62
7
100
AcDbPolyline
 90
56
 70
1
 10
62.364930
 20
4.146582
 30
0.0
 10
61.396941
 20
4.227291
 30
0.0
 10
60.539873
 20
4.469430
 30
0.0
 10
59.793714
 20
4.873014
 30
0.0
 10
59.158441
 20
5.438059
 30
0.0
 10
58.651087
 20
6.147406
 30
0.0
 10
58.288693
 20
6.984146
 30
0.0
 10
58.071258
 20
7.948280
 30
0.0
 10
57.998778
 20
9.039808
 30
0.0
 10
58.073999
 20
10.160228
 30
0.0
 10
58.299662
 20
11.149402
 30
0.0
 10
58.675770
 20
12.007332
 30
0.0
 10
59.202320
 20
12.734015
 30
0.0
 10
59.859558
 20
13.312442
 30
0.0
 10
60.627718
 20
13.725605
 30
0.0
 10
61.506785
 20
13.973504
 30
0.0
 10
62.496742
 20
14.056136
 30
0.0
 10
63.109449
 20
14.029233
 30
0.0
 10
63.709013
 20
13.948527
 30
0.0
 10
64.295420
 20
13.814018
 30
0.0
 10
64.868655
 20
13.625704
 30
0.0
 10
64.809365
 20
13.432425
 30
0.0
 10
64.750077
 20
13.239147
 30
0.0
 10
64.690789
 20
13.045872
 30
0.0
 10
64.631499
 20
12.852594
 30
0.0
 10
64.032434
 20
13.033238
 30
0.0
 10
63.474031
 20
13.162251
 30
0.0
 10
62.956279
 20
13.239647
 30
0.0
 10
62.479155
 20
13.265444
 30
0.0
 10
61.653909
 20
13.197634
 30
0.0
 10
60.935177
 20
12.994201
 30
0.0
 10
60.322979
 20
12.655151
 30
0.0
 10
59.817325
 20
12.180478
 30
0.0
 10
59.421398
 20
11.578440
 30
0.0
 10
59.138614
 20
10.857268
 30
0.0
 10
58.968955
 20
10.016932
 30
0.0
 10
58.912405
 20
9.057397
 30
0.0
 10
58.968955
 20
8.143471
 30
0.0
 10
59.138614
 20
7.334444
 30
0.0
 10
59.421398
 20
6.630282
 30
0.0
 10
59.817325
 20
6.030953
 30
0.0
 10
60.314747
 20
5.552496
 30
0.0
 10
60.902247
 20
5.210721
 30
0.0
 10
61.579789
 20
5.005645
 30
0.0
 10
62.347343
 20
4.937282
 30
0.0
 10
62.985909
 20
4.966373
 30
0.0
 10
63.601425
 20
5.053661
 30
0.0
 10
64.193894
 20
5.199161
 30
0.0
 10
64.763309
 20
5.402887
 30
0.0
 10
64.763309
 20
5.200817
 30
0.0
 10
64.763309
 20
4.998747
 30
0.0
 10
64.763309
 20
4.796677
 30
0.0
 10
64.763309
 20
4.594607
 30
0.0
 10
64.270784
 20
4.398622
 30
0.0
 10
63.706857
 20
4.258612
 30
0.0
 10
63.071560
 20
4.174594
 30
0.0
  0
LWPOLYLINE
  5
11a
100
AcDbEntity
  8
0
 62
7
100
AcDbPolyline
 90
36
 70
1
 10
74.997778
 20
9.110152
 30
0.0
 10
74.926963
 20
8.005700
 30
0.0
 10
74.714500
 20
7.029178
 30
0.0
 10
74.360379
 20
6.180606
 30
0.0
 10
73.864581
 20
5.459998
 30
0.0
 10
73.244133
 20
4.885355
 30
0.0
 10
72.516058
 20
4.474914
 30
0.0
 10
71.680343
 20
4.228664
 30
0.0
 10
70.736971
 20
4.146582
 30
0.0
 10
70.127593
 20
4.184457
 30
0.0
 10
69.555500
 20
4.298091
 30
0.0
 10
69.020690
 20
4.487503
 30
0.0
 10
68.523162
 20
4.752706
 30
0.0
 10
68.072418
 20
5.088756
 30
0.0
 10
67.677684
 20
5.490687
 30
0.0
 10
67.338940
 20
5.958505
 30
0.0
 10
67.056172
 20
6.492203
 30
0.0
 10
66.833218
 20
7.080814
 30
0.0
 10
66.673947
 20
7.713353
 30
0.0
 10
66.578372
 20
8.389806
 30
0.0
 10
66.546510
 20
9.110152
 30
0.0
 10
66.617355
 20
10.214052
 30
0.0
 10
66.829874
 20
11.188928
 30
0.0
 10
67.184056
 20
12.034777
 30
0.0
 10
67.679882
 20
12.751602
 30
0.0
 10
68.299222
 20
13.322287
 30
0.0
 10
69.023966
 20
13.729960
 30
0.0
 10
69.854130
 20
13.974586
 30
0.0
 10
70.789731
 20
14.056136
 30
0.0
 10
71.720657
 20
13.973504
 30
0.0
 10
72.545638
 20
13.725605
 30
0.0
 10
73.264644
 20
13.312442
 30
0.0
 10
73.877641
 20
12.734015
 30
0.0
 10
74.367726
 20
12.011713
 30
0.0
 10
74.717764
 20
11.166946
 30
0.0
 10
74.927777
 20
10.199749
 30
0.0
  0
LWPOLYLINE
  5
11b
100
AcDbEntity
  8
0
 62
7
100
AcDbPolyline
 90
32
 70
1
 10
67.460312
 20
9.110152
 30
0.0
 10
67.514380
 20
8.180335
 30
0.0
 10
67.676596
 20
7.358664
 30
0.0
 10
67.946974
 20
6.645156
 30
0.0
 10
68.325532
 20
6.039829
 30
0.0
 10
68.802943
 20
5.557415
 30
0.0
 10
69.369861
 20
5.212874
 30
0.0
 10
70.026265
 20
5.006171
 30
0.0
 10
70.772144
 20
4.937279
 30
0.0
 10
71.518097
 20
5.006171
 30
0.0
 10
72.174494
 20
5.212874
 30
0.0
 10
72.741369
 20
5.557415
 30
0.0
 10
73.218757
 20
6.039829
 30
0.0
 10
73.597341
 20
6.645156
 30
0.0
 10
73.867780
 20
7.358664
 30
0.0
 10
74.030057
 20
8.180335
 30
0.0
 10
74.084151
 20
9.110152
 30
0.0
 10
74.029528
 20
10.043012
 30
0.0
 10
73.865647
 20
10.864948
 30
0.0
 10
73.592494
 20
11.575982
 30
0.0
 10
73.210050
 20
12.176123
 30
0.0
 10
72.728778
 20
12.652725
 30
0.0
 10
72.159127
 20
12.993135
 30
0.0
 10
71.501064
 20
13.197367
 30
0.0
 10
70.754558
 20
13.265442
 30
0.0
 10
70.009234
 20
13.197632
 30
0.0
 10
69.354494
 20
12.994199
 30
0.0
 10
68.790354
 20
12.655148
 30
0.0
 10
68.316827
 20
12.180475
 30
0.0
 10
67.942053
 20
11.581710
 30
0.0
 10
67.674397
 20
10.870391
 30
0.0
 10
67.513827
 20
10.046531
 30
0.0
  0
LWPOLYLINE
  5
11c
100
AcDbEntity
  8
0
 62
7
100
AcDbPolyline
 90
64
 70
1
 10
81.727138
 20
4.146582
 30
0.0
 10
80.699314
 20
4.249812
 30
0.0
 10
79.820789
 20
4.559494
 30
0.0
 10
79.091597
 20
5.075611
 30
0.0
 10
78.511770
 20
5.798146
 30
0.0
 10
78.496398
 20
5.798146
 30
0.0
 10
78.481026
 20
5.798146
 30
0.0
 10
78.465654
 20
5.798146
 30
0.0
 10
78.450281
 20
5.798146
 30
0.0
 10
78.456869
 20
5.613662
 30
0.0
 10
78.463458
 20
5.429176
 30
0.0
 10
78.470019
 20
5.244693
 30
0.0
 10
78.476607
 20
5.060210
 30
0.0
 10
78.492006
 20
4.727488
 30
0.0
 10
78.502986
 20
4.379408
 30
0.0
 10
78.509574
 20
4.015950
 30
0.0
 10
78.511691
 20
3.637095
 30
0.0
 10
78.511691
 20
2.727823
 30
0.0
 10
78.511691
 20
1.818548
 30
0.0
 10
78.511691
 20
0.909273
 30
0.0
 10
78.511691
 20
0.000001
 30
0.0
 10
78.294254
 20
0.000001
 30
0.0
 10
78.076817
 20
0.000001
 30
0.0
 10
77.859379
 20
0.000001
 30
0.0
 10
77.641942
 20
0.000001
 30
0.0
 10
77.641942
 20
3.467892
 30
0.0
 10
77.641942
 20
6.935783
 30
0.0
 10
77.641942
 20
10.403674
 30
0.0
 10
77.641942
 20
13.871565
 30
0.0
 10
77.826426
 20
13.871565
 30
0.0
 10
78.010909
 20
13.871565
 30
0.0
 10
78.195395
 20
13.871565
 30
0.0
 10
78.379878
 20
13.871565
 30
0.0
 10
78.421624
 20
13.531152
 30
0.0
 10
78.463370
 20
13.190742
 30
0.0
 10
78.505116
 20
12.850331
 30
0.0
 10
78.546862
 20
12.509919
 30
0.0
 10
78.560038
 20
12.509919
 30
0.0
 10
78.573215
 20
12.509919
 30
0.0
 10
78.586417
 20
12.509919
 30
0.0
 10
78.599594
 20
12.509919
 30
0.0
 10
79.165122
 20
13.186389
 30
0.0
 10
79.877814
 20
13.669582
 30
0.0
 10
80.737652
 20
13.959497
 30
0.0
 10
81.744616
 20
14.056136
 30
0.0
 10
82.653611
 20
13.976798
 30
0.0
 10
83.447829
 20
13.738773
 30
0.0
 10
84.127290
 20
13.342046
 30
0.0
 10
84.692008
 20
12.786601
 30
0.0
 10
85.135929
 20
12.079706
 30
0.0
 10
85.452995
 20
11.228388
 30
0.0
 10
85.643223
 20
10.232671
 30
0.0
 10
85.706627
 20
9.092566
 30
0.0
 10
85.639923
 20
7.981551
 30
0.0
 10
85.439803
 20
7.002841
 30
0.0
 10
85.106251
 20
6.156458
 30
0.0
 10
84.639248
 20
5.442411
 30
0.0
 10
84.056934
 20
4.875509
 30
0.0
 10
83.377461
 20
4.470562
 30
0.0
 10
82.600826
 20
4.227579
 30
0.0
 10
81.727029
 20
4.146582
 30
0.0
 10
81.727027
 20
4.146582
 30
0.0
 10
81.727024
 20
4.146582
 30
0.0
 10
81.727024
 20
4.146582
 30
0.0
  0
LWPOLYLINE
  5
11d
100
AcDbEntity
  8
0
 62
7
100
AcDbPolyline
 90
32
 70
1
 10
81.709543
 20
4.919692
 30
0.0
 10
82.401622
 20
4.987767
 30
0.0
 10
83.010790
 20
5.192001
 30
0.0
 10
83.537068
 20
5.532409
 30
0.0
 10
83.980464
 20
6.009011
 30
0.0
 10
84.332183
 20
6.608070
 30
0.0
 10
84.583410
 20
7.315830
 30
0.0
 10
84.734149
 20
8.132279
 30
0.0
 10
84.784393
 20
9.057394
 30
0.0
 10
84.594414
 20
10.898389
 30
0.0
 10
84.024475
 20
12.213408
 30
0.0
 10
83.074576
 20
13.002430
 30
0.0
 10
81.744717
 20
13.265442
 30
0.0
 10
80.965567
 20
13.208077
 30
0.0
 10
80.297356
 20
13.035968
 30
0.0
 10
79.740085
 20
12.749102
 30
0.0
 10
79.293752
 20
12.347462
 30
0.0
 10
78.951632
 20
11.816215
 30
0.0
 10
78.707260
 20
11.140568
 30
0.0
 10
78.560636
 20
10.320547
 30
0.0
 10
78.511762
 20
9.356188
 30
0.0
 10
78.511762
 20
9.285886
 30
0.0
 10
78.511762
 20
9.215584
 30
0.0
 10
78.511762
 20
9.145281
 30
0.0
 10
78.511762
 20
9.074979
 30
0.0
 10
78.558710
 20
8.035063
 30
0.0
 10
78.699553
 20
7.155482
 30
0.0
 10
78.934294
 20
6.436204
 30
0.0
 10
79.262930
 20
5.877198
 30
0.0
 10
79.697516
 20
5.458289
 30
0.0
 10
80.250125
 20
5.159069
 30
0.0
 10
80.920791
 20
4.979536
 30
0.0
  0
LWPOLYLINE
  5
11e
100
AcDbEntity
  8
0
 62
7
100
AcDbPolyline
 90
60
 70
1
 10
92.207644
 20
4.146582
 30
0.0
 10
91.224052
 20
4.226735
 30
0.0
 10
90.355185
 20
4.467210
 30
0.0
 10
89.601045
 20
4.868016
 30
0.0
 10
88.961629
 20
5.429176
 30
0.0
 10
88.452349
 20
6.134741
 30
0.0
 10
88.088597
 20
6.968758
 30
0.0
 10
87.870355
 20
7.931246
 30
0.0
 10
87.797614
 20
9.022221
 30
0.0
 10
87.867903
 20
10.107518
 30
0.0
 10
88.078757
 20
11.079100
 30
0.0
 10
88.430164
 20
11.937003
 30
0.0
 10
88.922103
 20
12.681255
 30
0.0
 10
89.533180
 20
13.282766
 30
0.0
 10
90.242004
 20
13.712415
 30
0.0
 10
91.048578
 20
13.970207
 30
0.0
 10
91.952900
 20
14.056136
 30
0.0
 10
92.751799
 20
13.982550
 30
0.0
 10
93.461747
 20
13.761800
 30
0.0
 10
94.082730
 20
13.393907
 30
0.0
 10
94.614730
 20
12.878885
 30
0.0
 10
95.041384
 20
12.237580
 30
0.0
 10
95.346094
 20
11.490836
 30
0.0
 10
95.528897
 20
10.638674
 30
0.0
 10
95.589823
 20
9.681105
 30
0.0
 10
95.589823
 20
9.505413
 30
0.0
 10
95.589823
 20
9.329722
 30
0.0
 10
95.589823
 20
9.154034
 30
0.0
 10
95.589823
 20
8.978342
 30
0.0
 10
93.870177
 20
8.978342
 30
0.0
 10
92.150531
 20
8.978342
 30
0.0
 10
90.430887
 20
8.978342
 30
0.0
 10
88.711241
 20
8.978342
 30
0.0
 10
88.775193
 20
8.052637
 30
0.0
 10
88.949530
 20
7.243308
 30
0.0
 10
89.234216
 20
6.550369
 30
0.0
 10
89.629221
 20
5.973837
 30
0.0
 10
90.128085
 20
5.520317
 30
0.0
 10
90.724109
 20
5.196396
 30
0.0
 10
91.417296
 20
5.002057
 30
0.0
 10
92.207644
 20
4.937279
 30
0.0
 10
92.603796
 20
4.944396
 30
0.0
 10
92.975247
 20
4.965775
 30
0.0
 10
93.321984
 20
5.001464
 30
0.0
 10
93.643990
 20
5.051486
 30
0.0
 10
93.974227
 20
5.125041
 30
0.0
 10
94.345665
 20
5.231554
 30
0.0
 10
94.758306
 20
5.371008
 30
0.0
 10
95.212149
 20
5.543386
 30
0.0
 10
95.212149
 20
5.345714
 30
0.0
 10
95.212149
 20
5.148038
 30
0.0
 10
95.212149
 20
4.950365
 30
0.0
 10
95.212149
 20
4.752690
 30
0.0
 10
94.815766
 20
4.591021
 30
0.0
 10
94.434729
 20
4.457333
 30
0.0
 10
94.069038
 20
4.351656
 30
0.0
 10
93.718690
 20
4.274024
 30
0.0
 10
93.367259
 20
4.218261
 30
0.0
 10
92.998295
 20
4.178430
 30
0.0
 10
92.611768
 20
4.154538
 30
0.0
  0
LWPOLYLINE
  5
11f
100
AcDbEntity
  8
0
 62
7
100
AcDbPolyline
 90
20
 70
1
 10
91.952900
 20
13.283028
 30
0.0
 10
91.297292
 20
13.226191
 30
0.0
 10
90.709787
 20
13.055688
 30
0.0
 10
90.190389
 20
12.771536
 30
0.0
 10
89.739092
 20
12.373753
 30
0.0
 10
89.365209
 20
11.868915
 30
0.0
 10
89.078054
 20
11.263586
 30
0.0
 10
88.877645
 20
10.557762
 30
0.0
 10
88.763999
 20
9.751449
 30
0.0
 10
90.239871
 20
9.751449
 30
0.0
 10
91.715743
 20
9.751449
 30
0.0
 10
93.191618
 20
9.751449
 30
0.0
 10
94.667491
 20
9.751449
 30
0.0
 10
94.622469
 20
10.536344
 30
0.0
 10
94.487402
 20
11.230653
 30
0.0
 10
94.262292
 20
11.834366
 30
0.0
 10
93.947139
 20
12.347462
 30
0.0
 10
93.552359
 20
12.756772
 30
0.0
 10
93.088383
 20
13.049137
 30
0.0
 10
92.555224
 20
13.224556
 30
0.0
  0
ENDSEC
  0
SECTION
  2
OBJECTS
  0
DICTIONARY
  5
C
330
0
100
AcDbDictionary
  3
ACAD_GROUP
350
D
  3
ACAD_MLINESTYLE
350
17
  0
DICTIONARY
  5
D
330
C
100
AcDbDictionary
  0
DICTIONARY
  5
1A
330
C
100
AcDbDictionary
  0
DICTIONARY
  5
17
330
C
100
AcDbDictionary
  3
STANDARD
350
18
  0
DICTIONARY
  5
19
330
C
100
AcDbDictionary
  0
ENDSEC
  0
EOF
